<svg version="1.1" xmlns="http://www.w3.org/2000/svg" viewBox="0 0 245.9174696271469 137.57034632034652" width="245.9174696271469" height="137.57034632034652">
  <!-- svg-source:excalidraw -->
  
  <defs>
    <style class="style-fonts">
      @font-face {
        font-family: "Virgil";
        src: url("https://excalidraw.com/Virgil.woff2");
      }
      @font-face {
        font-family: "Cascadia";
        src: url("https://excalidraw.com/Cascadia.woff2");
      }
    </style>
    
  </defs>
  <rect x="0" y="0" width="245.9174696271469" height="137.57034632034652" fill="#ffffff"></rect><g transform="translate(103.33333333333326 16.666666666666742) rotate(0 45.23809523809524 0.9523809523808495)" stroke="none"><path fill="#2f8eb4" d="M -0.48,-1.21 Q -0.48,-1.21 0.76,-2.05 2.02,-2.89 3.31,-3.17 4.60,-3.46 7.08,-4.27 9.57,-5.09 11.02,-5.54 12.47,-6.00 14.37,-6.23 16.27,-6.47 17.71,-6.81 19.16,-7.15 21.62,-7.32 24.08,-7.49 26.06,-7.82 28.05,-8.15 30.24,-8.04 32.44,-7.92 34.34,-7.88 36.24,-7.84 38.41,-7.84 40.59,-7.84 43.43,-7.86 46.27,-7.87 48.70,-7.60 51.13,-7.33 53.53,-6.94 55.93,-6.55 57.83,-6.09 59.73,-5.64 61.97,-4.87 64.21,-4.11 65.94,-3.53 67.67,-2.96 69.45,-2.46 71.23,-1.96 72.86,-1.46 74.48,-0.96 76.22,-0.49 77.96,-0.02 80.17,0.75 82.37,1.53 84.08,2.12 85.80,2.71 87.14,3.27 88.47,3.83 89.90,5.66 91.32,7.50 91.41,7.69 91.51,7.88 91.54,8.09 91.57,8.30 91.53,8.51 91.48,8.72 91.38,8.90 91.28,9.09 91.12,9.23 90.96,9.37 90.76,9.45 90.57,9.54 90.36,9.55 90.14,9.57 89.94,9.52 89.73,9.47 89.55,9.35 89.37,9.24 89.24,9.07 89.11,8.91 89.04,8.71 88.96,8.51 88.96,8.29 88.95,8.08 89.01,7.88 89.08,7.68 89.20,7.50 89.33,7.33 89.50,7.21 89.67,7.08 89.87,7.02 90.08,6.96 90.29,6.97 90.50,6.97 90.70,7.05 90.90,7.12 91.07,7.25 91.23,7.39 91.35,7.57 91.46,7.74 91.51,7.95 91.56,8.16 91.54,8.37 91.53,8.58 91.44,8.78 91.36,8.97 91.22,9.13 91.07,9.29 90.89,9.39 90.70,9.50 90.50,9.53 90.29,9.57 90.08,9.55 89.87,9.52 89.68,9.42 89.48,9.33 89.33,9.18 89.18,9.03 89.19,9.03 89.19,9.03 87.98,8.48 86.78,7.93 85.56,7.44 84.33,6.95 82.60,6.36 80.87,5.76 78.82,5.03 76.78,4.30 74.97,3.80 73.16,3.31 71.58,2.81 70.01,2.32 68.13,1.77 66.25,1.22 64.52,0.63 62.78,0.04 60.74,-0.66 58.69,-1.37 56.95,-1.79 55.21,-2.22 52.91,-2.61 50.61,-3.00 48.43,-3.29 46.25,-3.58 43.40,-3.61 40.54,-3.64 38.33,-3.69 36.12,-3.74 34.15,-3.81 32.18,-3.88 30.42,-4.03 28.67,-4.17 26.51,-3.83 24.34,-3.48 22.20,-3.35 20.05,-3.22 18.39,-2.84 16.73,-2.47 15.19,-2.32 13.65,-2.16 12.15,-1.70 10.65,-1.24 9.18,-0.86 7.71,-0.47 5.58,0.11 3.45,0.69 1.96,0.95 0.48,1.21 0.33,1.26 0.18,1.30 0.02,1.30 -0.13,1.30 -0.28,1.27 -0.44,1.23 -0.58,1.16 -0.72,1.09 -0.84,0.99 -0.96,0.88 -1.05,0.75 -1.15,0.63 -1.21,0.48 -1.26,0.33 -1.29,0.18 -1.31,0.02 -1.29,-0.13 -1.28,-0.29 -1.22,-0.44 -1.17,-0.58 -1.08,-0.72 -0.99,-0.85 -0.88,-0.96 -0.76,-1.06 -0.62,-1.14 -0.48,-1.21 -0.48,-1.21 L -0.48,-1.21 Z"></path></g><g transform="translate(126.19047619047615 105.23809523809518) rotate(0 17.61904761904762 7.619047619047706)" stroke="none"><path fill="#2f8eb4" d="M 1.05,-0.78 Q 1.05,-0.78 2.16,0.09 3.27,0.97 4.15,2.73 5.04,4.48 6.14,6.12 7.25,7.75 8.16,9.01 9.06,10.27 9.90,11.24 10.75,12.22 11.71,12.72 12.67,13.23 13.68,13.78 14.69,14.34 16.90,14.55 19.11,14.76 20.19,14.80 21.28,14.84 22.92,14.62 24.56,14.40 25.43,13.65 26.31,12.89 27.51,11.56 28.72,10.22 29.49,9.14 30.27,8.07 30.88,7.08 31.48,6.09 31.79,4.94 32.10,3.80 31.61,1.21 31.12,-1.38 31.13,-1.59 31.13,-1.80 31.20,-2.00 31.28,-2.20 31.41,-2.37 31.54,-2.54 31.72,-2.65 31.90,-2.77 32.10,-2.82 32.31,-2.87 32.52,-2.86 32.73,-2.84 32.93,-2.76 33.12,-2.67 33.28,-2.53 33.44,-2.39 33.55,-2.21 33.65,-2.02 33.70,-1.82 33.74,-1.61 33.71,-1.40 33.68,-1.19 33.59,-1.00 33.50,-0.80 33.35,-0.65 33.20,-0.50 33.01,-0.41 32.82,-0.31 32.61,-0.28 32.40,-0.25 32.19,-0.29 31.98,-0.33 31.79,-0.43 31.61,-0.54 31.46,-0.69 31.32,-0.85 31.24,-1.04 31.15,-1.24 31.13,-1.45 31.11,-1.66 31.16,-1.87 31.21,-2.08 31.33,-2.26 31.44,-2.44 31.61,-2.57 31.77,-2.70 31.97,-2.78 32.17,-2.85 32.38,-2.86 32.59,-2.87 32.80,-2.81 33.00,-2.74 33.17,-2.62 33.35,-2.50 33.47,-2.33 33.60,-2.15 33.66,-1.95 33.72,-1.75 33.72,-1.75 33.72,-1.75 35.15,0.84 36.57,3.44 36.73,4.76 36.88,6.07 36.04,7.25 35.20,8.43 34.54,9.54 33.88,10.66 32.97,11.94 32.05,13.23 30.56,14.88 29.07,16.53 27.46,17.64 25.86,18.75 24.54,19.05 23.22,19.35 22.16,19.33 21.10,19.30 19.93,19.26 18.76,19.21 17.27,19.08 15.79,18.95 14.21,18.58 12.63,18.22 11.52,17.60 10.41,16.99 8.95,16.04 7.49,15.10 6.51,13.94 5.52,12.78 4.70,11.60 3.88,10.42 2.60,8.36 1.33,6.30 0.67,4.85 0.01,3.40 -0.51,2.09 -1.05,0.78 -1.12,0.65 -1.20,0.51 -1.25,0.36 -1.29,0.20 -1.30,0.05 -1.30,-0.10 -1.27,-0.26 -1.24,-0.41 -1.17,-0.56 -1.10,-0.70 -1.00,-0.82 -0.90,-0.94 -0.78,-1.04 -0.65,-1.13 -0.50,-1.19 -0.36,-1.26 -0.20,-1.28 -0.05,-1.31 0.10,-1.29 0.26,-1.28 0.41,-1.23 0.56,-1.18 0.69,-1.10 0.83,-1.01 0.94,-0.90 1.05,-0.78 1.05,-0.78 L 1.05,-0.78 Z"></path></g><g transform="translate(194.7619047619047 28.095238095238074) rotate(0 11.428571428571416 32.38095238095241)" stroke="none"><path fill="#2f8eb4" d="M 1.05,-0.78 Q 1.05,-0.78 2.12,0.08 3.19,0.96 4.13,1.47 5.07,1.97 6.01,2.98 6.96,3.99 8.32,4.64 9.68,5.29 11.35,6.68 13.02,8.06 13.80,8.88 14.59,9.71 15.38,11.11 16.17,12.51 17.20,14.13 18.22,15.75 18.73,16.69 19.24,17.64 20.05,19.37 20.85,21.11 21.20,22.22 21.55,23.34 21.74,24.85 21.93,26.36 22.69,28.87 23.44,31.39 23.67,32.73 23.90,34.06 24.00,35.21 24.10,36.35 24.15,38.67 24.21,40.98 24.46,42.11 24.72,43.24 24.85,44.48 24.99,45.71 25.05,47.09 25.10,48.46 25.13,49.58 25.15,50.71 25.16,52.05 25.18,53.40 25.18,55.46 25.19,57.52 25.19,58.81 25.19,60.09 24.68,61.96 24.17,63.82 24.15,63.97 24.13,64.13 24.07,64.28 24.02,64.43 23.93,64.56 23.84,64.69 23.72,64.79 23.60,64.90 23.46,64.97 23.32,65.04 23.16,65.08 23.01,65.12 22.85,65.12 22.69,65.12 22.54,65.08 22.39,65.04 22.25,64.97 22.11,64.90 21.99,64.79 21.87,64.69 21.78,64.56 21.69,64.43 21.63,64.28 21.58,64.13 21.56,63.97 21.54,63.82 21.57,63.61 21.61,63.40 21.71,63.21 21.81,63.02 21.96,62.88 22.12,62.73 22.31,62.64 22.50,62.55 22.71,62.53 22.92,62.50 23.13,62.55 23.34,62.60 23.52,62.71 23.70,62.82 23.84,62.98 23.98,63.14 24.06,63.34 24.13,63.53 24.15,63.75 24.16,63.96 24.10,64.16 24.04,64.37 23.92,64.54 23.81,64.72 23.64,64.85 23.47,64.98 23.27,65.04 23.06,65.11 22.85,65.11 22.64,65.11 22.44,65.04 22.24,64.98 22.07,64.85 21.90,64.72 21.78,64.54 21.66,64.37 21.60,64.16 21.55,63.96 21.56,63.75 21.57,63.53 21.65,63.34 21.73,63.14 21.86,62.98 22.00,62.82 22.18,62.71 22.37,62.60 22.57,62.55 22.78,62.50 22.99,62.53 23.20,62.55 23.40,62.64 23.59,62.73 23.74,62.88 23.90,63.02 24.00,63.21 24.10,63.40 24.13,63.61 24.17,63.82 24.17,63.82 24.17,63.82 24.15,63.97 24.13,64.13 24.07,64.28 24.02,64.43 23.93,64.56 23.84,64.69 23.72,64.79 23.60,64.90 23.46,64.97 23.32,65.04 23.16,65.08 23.01,65.12 22.85,65.12 22.69,65.12 22.54,65.08 22.39,65.04 22.25,64.97 22.11,64.90 21.99,64.79 21.87,64.69 21.78,64.56 21.69,64.43 21.63,64.28 21.58,64.13 21.56,63.97 21.54,63.82 21.02,61.96 20.51,60.10 20.51,58.81 20.51,57.52 20.51,55.47 20.51,53.43 20.50,52.11 20.49,50.80 20.47,49.72 20.45,48.64 20.31,46.41 20.16,44.18 19.86,42.61 19.55,41.04 19.54,39.82 19.53,38.59 19.45,36.66 19.37,34.72 19.25,33.63 19.13,32.54 18.74,31.01 18.35,29.47 17.97,28.17 17.60,26.87 17.49,25.74 17.38,24.61 17.00,23.38 16.63,22.14 16.06,20.89 15.50,19.63 14.58,17.92 13.67,16.22 13.07,15.33 12.46,14.45 12.02,13.47 11.57,12.49 10.38,11.06 9.19,9.64 7.84,8.81 6.49,7.98 4.68,6.67 2.88,5.36 1.48,4.38 0.08,3.41 -0.48,2.10 -1.05,0.78 -1.12,0.65 -1.20,0.51 -1.25,0.36 -1.29,0.20 -1.30,0.05 -1.30,-0.10 -1.27,-0.26 -1.24,-0.41 -1.17,-0.56 -1.10,-0.70 -1.00,-0.82 -0.90,-0.94 -0.78,-1.04 -0.65,-1.13 -0.50,-1.19 -0.36,-1.26 -0.20,-1.28 -0.05,-1.31 0.10,-1.29 0.26,-1.28 0.41,-1.23 0.56,-1.18 0.69,-1.10 0.83,-1.01 0.94,-0.90 1.05,-0.78 1.05,-0.78 L 1.05,-0.78 Z"></path></g><g transform="translate(216.66666666666657 90) rotate(0 2.8571428571428896 8.571428571428555)" stroke="none"><path fill="#2f8eb4" d="M 0.58,-1.17 Q 0.58,-1.17 1.86,-0.98 3.13,-0.79 4.15,-0.30 5.18,0.19 6.34,1.05 7.51,1.91 8.54,2.83 9.57,3.74 10.80,5.23 12.02,6.73 12.77,8.00 13.51,9.28 13.97,10.91 14.43,12.53 14.08,13.61 13.73,14.69 12.78,15.53 11.83,16.37 10.41,17.40 8.99,18.43 7.74,18.78 6.49,19.13 5.12,18.95 3.74,18.78 1.89,18.31 0.03,17.85 -1.60,17.36 -3.24,16.87 -4.91,15.79 -6.57,14.71 -6.77,14.62 -6.96,14.54 -7.12,14.39 -7.28,14.25 -7.38,14.06 -7.48,13.88 -7.52,13.67 -7.55,13.46 -7.52,13.25 -7.49,13.04 -7.39,12.85 -7.30,12.66 -7.15,12.51 -6.99,12.36 -6.80,12.27 -6.61,12.18 -6.40,12.15 -6.19,12.13 -5.98,12.17 -5.77,12.21 -5.59,12.32 -5.40,12.43 -5.26,12.59 -5.13,12.75 -5.04,12.94 -4.96,13.14 -4.95,13.35 -4.93,13.56 -4.99,13.77 -5.04,13.97 -5.16,14.15 -5.28,14.33 -5.44,14.46 -5.61,14.59 -5.81,14.66 -6.01,14.73 -6.22,14.73 -6.44,14.74 -6.64,14.67 -6.84,14.61 -7.01,14.48 -7.18,14.35 -7.30,14.18 -7.43,14.01 -7.48,13.80 -7.54,13.60 -7.54,13.39 -7.53,13.17 -7.45,12.98 -7.38,12.78 -7.24,12.61 -7.10,12.45 -6.92,12.34 -6.74,12.23 -6.54,12.18 -6.33,12.13 -6.12,12.15 -5.91,12.17 -5.91,12.17 -5.91,12.17 -3.10,12.64 -0.30,13.11 1.14,13.53 2.58,13.95 4.10,14.25 5.62,14.55 6.75,14.15 7.88,13.74 8.47,12.38 9.06,11.01 8.56,9.90 8.06,8.79 7.34,7.90 6.62,7.01 4.93,5.51 3.25,4.02 2.24,3.50 1.24,2.98 0.32,2.08 -0.58,1.17 -0.71,1.08 -0.85,0.99 -0.95,0.88 -1.06,0.76 -1.14,0.62 -1.21,0.48 -1.25,0.33 -1.30,0.18 -1.30,0.02 -1.30,-0.13 -1.27,-0.28 -1.23,-0.44 -1.16,-0.58 -1.09,-0.72 -0.99,-0.84 -0.89,-0.96 -0.76,-1.05 -0.63,-1.15 -0.48,-1.20 -0.33,-1.26 -0.18,-1.29 -0.02,-1.31 0.13,-1.29 0.28,-1.28 0.43,-1.22 0.58,-1.17 0.58,-1.17 L 0.58,-1.17 Z"></path></g><g transform="translate(198.5714285714285 98.57142857142867) rotate(0 10.476190476190482 3.809523809523853)" stroke="none"><path fill="#2f8eb4" d="M 0.48,-1.21 Q 0.48,-1.21 1.98,-0.98 3.47,-0.74 4.84,-0.25 6.21,0.23 8.40,0.77 10.59,1.30 12.01,2.07 13.44,2.83 14.91,3.33 16.37,3.83 18.58,5.02 20.79,6.21 20.98,6.30 21.18,6.39 21.33,6.53 21.49,6.68 21.59,6.87 21.69,7.05 21.72,7.26 21.76,7.47 21.72,7.68 21.69,7.89 21.59,8.08 21.49,8.27 21.34,8.41 21.18,8.56 20.99,8.65 20.80,8.74 20.59,8.76 20.38,8.79 20.17,8.74 19.96,8.70 19.78,8.59 19.60,8.48 19.46,8.32 19.32,8.16 19.24,7.96 19.16,7.76 19.15,7.55 19.14,7.34 19.19,7.13 19.25,6.93 19.37,6.75 19.49,6.58 19.66,6.45 19.83,6.32 20.03,6.25 20.23,6.18 20.44,6.18 20.65,6.18 20.85,6.25 21.06,6.31 21.23,6.44 21.39,6.57 21.51,6.75 21.63,6.92 21.69,7.13 21.75,7.33 21.74,7.54 21.73,7.75 21.65,7.95 21.57,8.15 21.43,8.31 21.30,8.47 21.12,8.58 20.93,8.69 20.73,8.74 20.52,8.79 20.31,8.76 20.10,8.74 20.10,8.74 20.10,8.74 17.54,8.27 14.98,7.80 13.19,7.15 11.40,6.51 9.42,5.52 7.45,4.53 6.16,4.25 4.87,3.98 3.43,3.45 2.00,2.93 0.75,2.07 -0.48,1.21 -0.62,1.14 -0.76,1.06 -0.88,0.96 -0.99,0.85 -1.08,0.72 -1.17,0.58 -1.22,0.44 -1.28,0.29 -1.29,0.13 -1.31,-0.02 -1.29,-0.18 -1.26,-0.33 -1.21,-0.48 -1.15,-0.63 -1.05,-0.75 -0.96,-0.88 -0.84,-0.99 -0.72,-1.09 -0.58,-1.16 -0.44,-1.23 -0.28,-1.27 -0.13,-1.30 0.02,-1.30 0.18,-1.30 0.33,-1.26 0.48,-1.21 0.48,-1.21 L 0.48,-1.21 Z"></path></g><g transform="translate(65.23809523809518 90.95238095238096) rotate(0 28.571428571428584 9.047619047619037)" stroke="none"><path fill="#2f8eb4" d="M 0.72,-1.09 Q 0.72,-1.09 1.71,-0.80 2.69,-0.50 4.35,0.08 6.01,0.67 7.04,1.15 8.07,1.62 9.63,2.46 11.19,3.30 12.86,4.26 14.52,5.22 15.59,5.77 16.65,6.31 17.90,6.75 19.16,7.19 20.41,7.69 21.65,8.19 23.49,9.00 25.33,9.82 26.95,10.36 28.57,10.90 29.68,11.30 30.79,11.70 31.99,12.12 33.19,12.53 35.09,13.10 37.00,13.67 38.63,13.78 40.27,13.88 42.38,14.26 44.50,14.64 46.08,15.13 47.66,15.62 49.19,15.72 50.73,15.83 52.16,15.84 53.58,15.86 55.54,16.80 57.49,17.73 57.66,17.87 57.82,18.00 57.94,18.18 58.05,18.36 58.10,18.57 58.15,18.77 58.13,18.98 58.11,19.20 58.03,19.39 57.94,19.59 57.80,19.74 57.65,19.90 57.47,20.00 57.28,20.11 57.07,20.15 56.86,20.18 56.65,20.15 56.44,20.12 56.25,20.03 56.06,19.93 55.92,19.78 55.77,19.63 55.67,19.44 55.58,19.25 55.55,19.04 55.53,18.83 55.57,18.62 55.61,18.41 55.71,18.22 55.82,18.04 55.98,17.90 56.14,17.76 56.34,17.68 56.53,17.59 56.74,17.58 56.95,17.56 57.16,17.62 57.37,17.67 57.54,17.78 57.72,17.90 57.85,18.07 57.99,18.23 58.06,18.43 58.13,18.63 58.13,18.84 58.14,19.06 58.07,19.26 58.01,19.46 57.89,19.63 57.76,19.81 57.59,19.93 57.41,20.05 57.21,20.11 57.01,20.17 56.79,20.17 56.58,20.16 56.38,20.08 56.18,20.01 56.18,20.01 56.18,20.01 54.87,20.16 53.56,20.31 52.04,20.30 50.52,20.28 49.23,20.18 47.94,20.08 46.49,19.62 45.05,19.15 43.97,18.97 42.89,18.79 41.46,18.55 40.03,18.30 38.71,18.22 37.40,18.14 35.81,17.64 34.22,17.13 32.99,16.91 31.76,16.68 29.72,15.93 27.69,15.19 25.59,14.45 23.49,13.70 22.01,13.01 20.53,12.31 19.39,11.81 18.25,11.31 17.11,11.03 15.96,10.74 14.84,10.02 13.71,9.30 12.42,8.61 11.13,7.92 9.61,7.18 8.09,6.45 6.91,5.73 5.73,5.01 4.64,4.35 3.55,3.68 2.07,3.19 0.58,2.70 -0.07,1.89 -0.72,1.09 -0.84,0.98 -0.96,0.88 -1.06,0.75 -1.15,0.62 -1.21,0.48 -1.26,0.33 -1.29,0.17 -1.31,0.02 -1.29,-0.13 -1.28,-0.29 -1.22,-0.44 -1.17,-0.59 -1.08,-0.72 -0.99,-0.85 -0.88,-0.96 -0.76,-1.06 -0.62,-1.14 -0.48,-1.22 -0.33,-1.26 -0.17,-1.30 -0.02,-1.30 0.13,-1.30 0.29,-1.27 0.44,-1.23 0.58,-1.16 0.72,-1.09 0.72,-1.09 L 0.72,-1.09 Z"></path></g><g transform="translate(163.33333333333326 107.14285714285711) rotate(0 21.428571428571416 -4.761904761904702)" stroke="none"><path fill="#2f8eb4" d="M 0,-1.31 Q 0,-1.31 1.36,-1.77 2.73,-2.22 4.50,-2.26 6.27,-2.30 7.76,-2.32 9.25,-2.35 10.69,-2.36 12.13,-2.38 13.28,-2.40 14.44,-2.41 16.44,-2.82 18.44,-3.24 20.25,-3.71 22.07,-4.18 24.06,-4.66 26.04,-5.15 27.86,-5.62 29.68,-6.09 31.24,-6.76 32.81,-7.43 34.23,-8.22 35.66,-9.01 36.61,-9.54 37.55,-10.07 39.63,-10.14 41.70,-10.20 41.87,-10.34 42.03,-10.47 42.23,-10.54 42.43,-10.61 42.64,-10.62 42.86,-10.62 43.06,-10.56 43.26,-10.50 43.44,-10.37 43.61,-10.25 43.73,-10.08 43.85,-9.90 43.92,-9.70 43.98,-9.50 43.97,-9.29 43.97,-9.07 43.89,-8.87 43.82,-8.67 43.68,-8.51 43.55,-8.34 43.37,-8.23 43.19,-8.12 42.99,-8.07 42.78,-8.01 42.57,-8.03 42.36,-8.05 42.16,-8.13 41.97,-8.22 41.81,-8.36 41.65,-8.50 41.55,-8.69 41.44,-8.87 41.40,-9.08 41.36,-9.29 41.39,-9.50 41.42,-9.71 41.52,-9.90 41.61,-10.09 41.76,-10.24 41.91,-10.39 42.10,-10.49 42.29,-10.58 42.50,-10.61 42.72,-10.64 42.92,-10.60 43.13,-10.56 43.32,-10.45 43.50,-10.35 43.64,-10.19 43.79,-10.03 43.87,-9.83 43.95,-9.64 43.97,-9.43 43.99,-9.21 43.93,-9.01 43.88,-8.80 43.77,-8.62 43.65,-8.44 43.65,-8.44 43.65,-8.44 41.81,-7.06 39.97,-5.67 38.40,-4.68 36.83,-3.70 35.84,-3.23 34.86,-2.76 33.82,-2.32 32.78,-1.88 30.93,-1.42 29.08,-0.96 27.56,-0.57 26.03,-0.18 25.05,0.23 24.07,0.66 22.75,0.79 21.43,0.92 19.81,1.32 18.20,1.71 16.32,2.06 14.44,2.41 13.28,2.40 12.13,2.38 10.69,2.36 9.25,2.35 7.76,2.32 6.27,2.30 4.50,2.26 2.73,2.22 1.36,1.77 0,1.31 -0.15,1.29 -0.31,1.27 -0.46,1.21 -0.61,1.16 -0.74,1.07 -0.87,0.98 -0.97,0.86 -1.08,0.74 -1.15,0.60 -1.22,0.46 -1.26,0.31 -1.30,0.15 -1.30,-0.00 -1.30,-0.15 -1.26,-0.31 -1.22,-0.46 -1.15,-0.60 -1.08,-0.74 -0.97,-0.86 -0.87,-0.98 -0.74,-1.07 -0.61,-1.16 -0.46,-1.21 -0.31,-1.27 -0.15,-1.29 0.00,-1.31 0.00,-1.31 L 0,-1.31 Z"></path></g><g transform="translate(20.476190476190425 59.52380952380963) rotate(0 20 -2.8571428571428896)" stroke="none"><path fill="#2f8eb4" d="M -0.31,-1.27 Q -0.31,-1.27 0.69,-1.89 1.69,-2.51 3.18,-2.93 4.67,-3.35 6.21,-3.80 7.75,-4.26 9.35,-4.47 10.94,-4.68 12.16,-4.76 13.38,-4.85 14.83,-5.18 16.28,-5.50 17.70,-5.90 19.11,-6.29 20.54,-6.73 21.96,-7.17 23.58,-7.40 25.20,-7.62 26.42,-7.71 27.65,-7.80 28.74,-7.84 29.84,-7.87 31.13,-7.58 32.43,-7.29 33.74,-7.16 35.06,-7.04 38.03,-4.92 41.01,-2.80 41.07,-2.59 41.14,-2.39 41.14,-2.18 41.14,-1.97 41.08,-1.77 41.01,-1.56 40.88,-1.40 40.75,-1.23 40.58,-1.11 40.40,-0.99 40.20,-0.93 39.99,-0.87 39.78,-0.88 39.57,-0.89 39.37,-0.97 39.17,-1.05 39.01,-1.19 38.85,-1.32 38.74,-1.51 38.63,-1.69 38.58,-1.90 38.54,-2.10 38.56,-2.31 38.58,-2.53 38.67,-2.72 38.76,-2.91 38.90,-3.07 39.05,-3.22 39.24,-3.32 39.42,-3.42 39.63,-3.46 39.84,-3.49 40.05,-3.46 40.26,-3.42 40.45,-3.32 40.64,-3.22 40.79,-3.07 40.93,-2.92 41.02,-2.72 41.11,-2.53 41.14,-2.32 41.16,-2.11 41.11,-1.90 41.07,-1.69 40.96,-1.51 40.85,-1.33 40.69,-1.19 40.53,-1.05 40.33,-0.97 40.13,-0.89 39.92,-0.88 39.71,-0.87 39.50,-0.93 39.30,-0.98 39.12,-1.10 38.95,-1.22 38.82,-1.39 38.69,-1.56 38.69,-1.56 38.69,-1.56 36.75,-2.09 34.82,-2.61 33.06,-2.80 31.30,-2.99 29.63,-3.19 27.96,-3.38 26.86,-3.31 25.77,-3.24 24.51,-3.08 23.24,-2.93 21.75,-2.48 20.26,-2.03 18.69,-1.61 17.11,-1.20 15.38,-0.92 13.65,-0.63 12.55,-0.57 11.45,-0.51 10.16,-0.37 8.87,-0.23 7.49,0.13 6.11,0.50 4.39,0.95 2.68,1.41 1.49,1.34 0.31,1.27 0.16,1.29 0.00,1.31 -0.15,1.29 -0.31,1.27 -0.45,1.22 -0.60,1.16 -0.73,1.07 -0.86,0.98 -0.97,0.86 -1.07,0.74 -1.15,0.60 -1.22,0.46 -1.26,0.31 -1.30,0.16 -1.30,0.00 -1.30,-0.15 -1.26,-0.30 -1.22,-0.46 -1.15,-0.60 -1.08,-0.74 -0.97,-0.86 -0.87,-0.98 -0.74,-1.07 -0.61,-1.16 -0.46,-1.21 -0.31,-1.27 -0.31,-1.27 L -0.31,-1.27 Z"></path></g><g transform="translate(19.52380952380952 64.28571428571445) rotate(0 6.190476190476176 5.714285714285552)" stroke="none"><path fill="#2f8eb4" d="M 1.31,0 Q 1.31,0 1.66,1.09 2.01,2.19 2.42,3.67 2.82,5.15 4.30,6.46 5.79,7.76 7.82,8.42 9.85,9.07 11.19,9.70 12.53,10.32 12.74,10.28 12.95,10.24 13.16,10.26 13.37,10.29 13.56,10.38 13.75,10.47 13.91,10.61 14.06,10.76 14.16,10.95 14.26,11.14 14.29,11.35 14.32,11.56 14.29,11.77 14.25,11.98 14.15,12.16 14.05,12.35 13.89,12.50 13.74,12.64 13.54,12.73 13.35,12.82 13.14,12.84 12.93,12.86 12.72,12.81 12.51,12.76 12.33,12.65 12.15,12.54 12.01,12.38 11.88,12.22 11.80,12.02 11.72,11.82 11.71,11.61 11.70,11.40 11.76,11.19 11.82,10.99 11.94,10.81 12.06,10.64 12.23,10.51 12.40,10.38 12.60,10.32 12.81,10.25 13.02,10.25 13.23,10.25 13.43,10.32 13.63,10.39 13.80,10.52 13.97,10.65 14.09,10.83 14.20,11.01 14.26,11.21 14.32,11.42 14.30,11.63 14.29,11.84 14.21,12.04 14.13,12.23 13.99,12.39 13.85,12.56 13.67,12.66 13.49,12.77 13.49,12.77 13.49,12.77 10.23,12.49 6.98,12.22 5.01,11.45 3.03,10.69 2.18,9.87 1.32,9.06 0.34,8.12 -0.63,7.18 -1.30,5.76 -1.98,4.34 -1.99,3.26 -2.01,2.19 -1.66,1.09 -1.31,0 -1.29,-0.15 -1.27,-0.31 -1.21,-0.46 -1.16,-0.61 -1.07,-0.74 -0.98,-0.87 -0.86,-0.97 -0.74,-1.08 -0.60,-1.15 -0.46,-1.22 -0.31,-1.26 -0.15,-1.30 0.00,-1.30 0.15,-1.30 0.31,-1.26 0.46,-1.22 0.60,-1.15 0.74,-1.08 0.86,-0.97 0.98,-0.87 1.07,-0.74 1.16,-0.61 1.21,-0.46 1.27,-0.31 1.29,-0.15 1.31,0.00 1.31,0.00 L 1.31,0 Z"></path></g><g transform="translate(12.857142857142833 73.80952380952385) rotate(0 -0.4761904761904816 -0.4761904761904816)" stroke="none"><path fill="#2f8eb4" d="M 1.25,-0.39 Q 1.25,-0.39 1.27,-0.07 1.29,0.23 1.16,0.52 1.03,0.80 0.78,1.00 0.53,1.19 0.22,1.25 -0.07,1.31 -0.37,1.21 -0.67,1.12 -0.90,0.90 -1.12,0.67 -1.21,0.37 -1.31,0.07 -1.25,-0.23 -1.19,-0.53 -1.00,-0.78 -0.80,-1.03 -0.52,-1.16 -0.23,-1.29 0.07,-1.27 0.39,-1.25 0.65,-1.09 0.92,-0.92 1.09,-0.65 L 1.25,-0.39 Z"></path></g><g transform="translate(13.809523809523796 71.90476190476193) rotate(0 10.476190476190453 2.8571428571428896)" stroke="none"><path fill="#2f8eb4" d="M 0.58,-1.17 Q 0.58,-1.17 1.86,-0.99 3.13,-0.82 4.76,-0.61 6.39,-0.40 7.82,-0.36 9.25,-0.33 10.70,-0.31 12.16,-0.29 13.56,0.00 14.97,0.30 16.89,0.48 18.82,0.66 20.42,2.78 22.03,4.91 22.08,5.11 22.14,5.32 22.12,5.53 22.10,5.74 22.02,5.94 21.94,6.13 21.79,6.29 21.65,6.45 21.47,6.56 21.28,6.66 21.07,6.70 20.87,6.74 20.66,6.72 20.44,6.69 20.25,6.59 20.06,6.50 19.91,6.35 19.76,6.20 19.67,6.01 19.57,5.82 19.54,5.61 19.51,5.40 19.55,5.19 19.59,4.98 19.70,4.80 19.80,4.61 19.96,4.47 20.12,4.33 20.31,4.24 20.51,4.16 20.72,4.14 20.93,4.12 21.14,4.17 21.34,4.22 21.52,4.34 21.70,4.45 21.83,4.62 21.97,4.78 22.04,4.98 22.12,5.18 22.12,5.39 22.13,5.60 22.07,5.81 22.00,6.01 21.88,6.18 21.76,6.36 21.59,6.48 21.41,6.61 21.21,6.67 21.01,6.73 20.80,6.73 20.58,6.72 20.38,6.65 20.18,6.58 20.02,6.44 19.85,6.31 19.74,6.13 19.62,5.95 19.62,5.95 19.62,5.95 17.96,5.41 16.30,4.86 14.19,4.46 12.08,4.05 10.60,4.03 9.13,4.01 7.54,3.96 5.95,3.91 4.84,3.78 3.73,3.66 2.49,3.33 1.24,3.01 0.32,2.09 -0.58,1.17 -0.71,1.08 -0.85,0.99 -0.95,0.88 -1.06,0.76 -1.14,0.62 -1.21,0.48 -1.25,0.33 -1.30,0.18 -1.30,0.02 -1.30,-0.13 -1.27,-0.28 -1.23,-0.44 -1.16,-0.58 -1.09,-0.72 -0.99,-0.84 -0.89,-0.96 -0.76,-1.05 -0.63,-1.15 -0.48,-1.20 -0.33,-1.26 -0.18,-1.29 -0.02,-1.31 0.13,-1.29 0.28,-1.28 0.43,-1.22 0.58,-1.17 0.58,-1.17 L 0.58,-1.17 Z"></path></g><g transform="translate(11.90476190476187 78.57142857142867) rotate(0 4.285714285714306 5.714285714285666)" stroke="none"><path fill="#2f8eb4" d="M 1.31,0 Q 1.31,0 1.67,0.75 2.03,1.50 2.75,2.50 3.46,3.49 4.79,5.11 6.11,6.74 6.94,7.65 7.76,8.55 9.27,9.78 10.78,11.00 10.93,11.15 11.09,11.29 11.19,11.48 11.29,11.67 11.33,11.88 11.36,12.08 11.33,12.29 11.30,12.50 11.20,12.69 11.10,12.88 10.95,13.03 10.80,13.18 10.61,13.27 10.41,13.36 10.20,13.38 9.99,13.41 9.78,13.37 9.58,13.32 9.39,13.21 9.21,13.11 9.07,12.95 8.93,12.78 8.85,12.59 8.77,12.39 8.76,12.18 8.74,11.97 8.80,11.76 8.85,11.56 8.97,11.38 9.09,11.20 9.26,11.07 9.43,10.94 9.63,10.87 9.83,10.80 10.04,10.80 10.25,10.80 10.45,10.87 10.66,10.93 10.83,11.06 11.00,11.19 11.12,11.36 11.24,11.53 11.30,11.74 11.36,11.94 11.35,12.16 11.34,12.37 11.26,12.57 11.18,12.76 11.05,12.93 10.91,13.09 10.73,13.20 10.55,13.31 10.34,13.36 10.13,13.41 9.92,13.39 9.71,13.37 9.52,13.28 9.32,13.19 9.32,13.19 9.32,13.19 7.08,12.35 4.83,11.52 3.87,10.54 2.90,9.56 2.02,8.54 1.14,7.53 0.48,6.55 -0.18,5.57 -1.10,3.67 -2.03,1.77 -1.67,0.88 -1.31,0 -1.29,-0.15 -1.27,-0.31 -1.21,-0.46 -1.16,-0.61 -1.07,-0.74 -0.98,-0.87 -0.86,-0.97 -0.74,-1.08 -0.60,-1.15 -0.46,-1.22 -0.31,-1.26 -0.15,-1.30 0.00,-1.30 0.15,-1.30 0.31,-1.26 0.46,-1.22 0.60,-1.15 0.74,-1.08 0.86,-0.97 0.98,-0.87 1.07,-0.74 1.16,-0.61 1.21,-0.46 1.27,-0.31 1.29,-0.15 1.31,0.00 1.31,0.00 L 1.31,0 Z"></path></g><g transform="translate(61.15207373271872 93.24116743471586) rotate(0 -21.612903225806434 2.258064516129025)" stroke="none"><path fill="#2f8eb4" d="M 0.78,1.05 Q 0.78,1.05 0.28,1.92 -0.21,2.80 -1.32,3.66 -2.43,4.52 -3.78,5.36 -5.13,6.20 -6.40,6.77 -7.67,7.34 -8.74,7.75 -9.81,8.16 -11.21,8.27 -12.60,8.38 -13.97,8.41 -15.33,8.43 -16.71,8.45 -18.09,8.46 -19.24,8.48 -20.39,8.50 -21.92,8.53 -23.45,8.55 -24.79,8.55 -26.12,8.56 -27.50,8.56 -28.88,8.56 -30.37,8.34 -31.85,8.12 -33.44,7.69 -35.02,7.27 -36.44,6.57 -37.86,5.88 -38.94,5.19 -40.02,4.50 -41.29,3.85 -42.55,3.20 -43.33,1.46 -44.12,-0.27 -44.21,-0.46 -44.30,-0.66 -44.33,-0.87 -44.35,-1.08 -44.31,-1.29 -44.27,-1.49 -44.16,-1.68 -44.05,-1.86 -43.89,-2.00 -43.73,-2.14 -43.54,-2.22 -43.34,-2.30 -43.13,-2.32 -42.92,-2.33 -42.71,-2.28 -42.50,-2.23 -42.33,-2.11 -42.15,-1.99 -42.02,-1.82 -41.89,-1.66 -41.82,-1.46 -41.75,-1.26 -41.74,-1.04 -41.74,-0.83 -41.81,-0.63 -41.87,-0.43 -42.00,-0.26 -42.12,-0.09 -42.30,0.03 -42.47,0.15 -42.67,0.21 -42.88,0.27 -43.09,0.26 -43.30,0.25 -43.50,0.18 -43.70,0.10 -43.86,-0.03 -44.03,-0.16 -44.14,-0.34 -44.25,-0.52 -44.30,-0.73 -44.35,-0.94 -44.33,-1.15 -44.31,-1.36 -44.22,-1.55 -44.14,-1.75 -43.99,-1.90 -43.85,-2.06 -43.66,-2.16 -43.48,-2.26 -43.27,-2.30 -43.06,-2.34 -42.85,-2.31 -42.64,-2.28 -42.45,-2.18 -42.26,-2.08 -42.11,-1.93 -41.96,-1.78 -41.96,-1.78 -41.96,-1.78 -39.93,-1.15 -37.91,-0.52 -36.36,0.40 -34.82,1.33 -33.27,1.92 -31.73,2.51 -30.30,2.77 -28.88,3.04 -27.50,3.04 -26.12,3.05 -24.79,3.05 -23.45,3.06 -21.92,3.08 -20.39,3.10 -18.82,3.13 -17.26,3.15 -15.78,3.17 -14.31,3.18 -13.00,3.17 -11.69,3.16 -10.63,2.90 -9.57,2.64 -8.54,2.30 -7.51,1.96 -6.35,1.40 -5.18,0.84 -3.97,0.13 -2.75,-0.57 -1.76,-0.81 -0.78,-1.05 -0.65,-1.12 -0.51,-1.20 -0.36,-1.25 -0.20,-1.29 -0.05,-1.30 0.10,-1.30 0.26,-1.27 0.41,-1.24 0.56,-1.17 0.70,-1.10 0.82,-1.00 0.94,-0.90 1.04,-0.78 1.13,-0.65 1.19,-0.50 1.26,-0.36 1.28,-0.20 1.31,-0.05 1.29,0.10 1.28,0.26 1.23,0.41 1.18,0.56 1.10,0.69 1.01,0.83 0.90,0.94 0.78,1.05 0.78,1.05 L 0.78,1.05 Z"></path></g><g transform="translate(104.37788018433164 17.112135176651464) rotate(0 -23.225806451612897 23.870967741935488)" stroke="none"><path fill="#2f8eb4" d="M 0.58,1.17 Q 0.58,1.17 -0.40,1.97 -1.39,2.76 -2.38,3.48 -3.36,4.19 -4.42,4.69 -5.48,5.19 -6.71,5.84 -7.93,6.50 -9.61,7.51 -11.28,8.51 -12.71,9.18 -14.15,9.84 -15.26,10.61 -16.37,11.37 -17.62,12.30 -18.88,13.23 -20.96,15.07 -23.04,16.91 -24.47,17.80 -25.90,18.69 -26.75,19.35 -27.60,20.01 -28.58,20.71 -29.57,21.40 -30.57,22.49 -31.58,23.58 -32.82,25.26 -34.06,26.94 -35.01,28.90 -35.96,30.86 -37.04,32.62 -38.12,34.38 -39.05,35.85 -39.98,37.32 -40.75,38.59 -41.53,39.85 -41.99,40.85 -42.46,41.85 -43.78,44.73 -45.10,47.60 -45.17,47.81 -45.23,48.01 -45.35,48.18 -45.47,48.35 -45.65,48.48 -45.82,48.60 -46.02,48.67 -46.22,48.73 -46.44,48.73 -46.65,48.72 -46.85,48.65 -47.05,48.58 -47.21,48.44 -47.38,48.31 -47.50,48.13 -47.61,47.95 -47.66,47.75 -47.71,47.54 -47.70,47.33 -47.68,47.12 -47.60,46.92 -47.52,46.73 -47.37,46.57 -47.23,46.41 -47.05,46.30 -46.86,46.20 -46.65,46.16 -46.45,46.12 -46.24,46.15 -46.02,46.17 -45.83,46.27 -45.64,46.36 -45.49,46.51 -45.34,46.66 -45.25,46.85 -45.15,47.04 -45.12,47.25 -45.09,47.46 -45.13,47.67 -45.17,47.88 -45.28,48.06 -45.38,48.25 -45.54,48.39 -45.69,48.53 -45.89,48.62 -46.08,48.70 -46.30,48.72 -46.51,48.74 -46.71,48.69 -46.92,48.64 -47.10,48.52 -47.28,48.41 -47.41,48.25 -47.55,48.08 -47.62,47.88 -47.69,47.68 -47.70,47.47 -47.71,47.26 -47.71,47.26 -47.71,47.26 -47.44,44.73 -47.18,42.21 -46.75,41.12 -46.31,40.03 -45.74,38.83 -45.16,37.62 -44.36,36.31 -43.55,35.00 -42.54,33.41 -41.53,31.82 -40.65,30.39 -39.77,28.97 -39.20,27.83 -38.63,26.69 -38.08,25.59 -37.53,24.49 -36.84,23.52 -36.15,22.55 -35.40,21.59 -34.65,20.63 -33.38,19.25 -32.11,17.87 -31.18,17.21 -30.26,16.55 -29.22,15.76 -28.19,14.98 -26.94,14.21 -25.69,13.44 -24.43,12.51 -23.17,11.57 -22.29,10.62 -21.41,9.67 -20.10,8.71 -18.79,7.75 -17.40,6.84 -16.01,5.93 -14.44,5.22 -12.87,4.50 -11.38,3.74 -9.89,2.97 -8.83,2.40 -7.77,1.83 -6.67,1.50 -5.58,1.17 -4.31,0.31 -3.05,-0.54 -1.82,-0.85 -0.58,-1.17 -0.43,-1.22 -0.28,-1.28 -0.13,-1.29 0.02,-1.31 0.18,-1.29 0.33,-1.26 0.48,-1.20 0.63,-1.15 0.76,-1.05 0.89,-0.96 0.99,-0.84 1.09,-0.72 1.16,-0.58 1.23,-0.44 1.27,-0.28 1.30,-0.13 1.30,0.02 1.30,0.18 1.25,0.33 1.21,0.48 1.14,0.62 1.06,0.76 0.95,0.88 0.85,1.00 0.71,1.08 0.58,1.17 0.58,1.17 L 0.58,1.17 Z"></path></g><g transform="translate(26.958525345622007 84.20890937019976) rotate(0 6.774193548387075 1.6129032258064626)" stroke="none"><path fill="#2f8eb4" d="M 0.48,-1.21 Q 0.48,-1.21 1.54,-1.16 2.59,-1.10 4.14,-0.69 5.68,-0.28 7.08,0.18 8.47,0.65 10.78,1.26 13.08,1.86 13.29,1.92 13.49,1.97 13.67,2.08 13.85,2.20 13.98,2.36 14.12,2.53 14.19,2.73 14.26,2.93 14.27,3.14 14.27,3.35 14.21,3.56 14.14,3.76 14.02,3.93 13.89,4.10 13.72,4.23 13.55,4.35 13.34,4.41 13.14,4.47 12.93,4.47 12.72,4.46 12.52,4.39 12.32,4.31 12.15,4.18 11.99,4.04 11.87,3.86 11.76,3.69 11.71,3.48 11.66,3.27 11.68,3.06 11.70,2.85 11.78,2.65 11.87,2.46 12.01,2.30 12.15,2.14 12.34,2.04 12.52,1.94 12.73,1.90 12.94,1.86 13.15,1.89 13.36,1.92 13.55,2.01 13.74,2.11 13.89,2.26 14.04,2.41 14.13,2.60 14.23,2.79 14.25,3.00 14.28,3.21 14.24,3.42 14.20,3.63 14.09,3.81 13.99,4.00 13.83,4.14 13.67,4.28 13.48,4.36 13.28,4.45 13.07,4.46 12.86,4.48 12.86,4.48 12.86,4.48 10.01,4.50 7.16,4.51 6.04,4.12 4.92,3.72 3.02,3.15 1.11,2.59 0.31,1.90 -0.48,1.21 -0.62,1.14 -0.76,1.06 -0.88,0.96 -0.99,0.85 -1.08,0.72 -1.17,0.58 -1.22,0.44 -1.28,0.29 -1.29,0.13 -1.31,-0.02 -1.29,-0.18 -1.26,-0.33 -1.21,-0.48 -1.15,-0.63 -1.05,-0.75 -0.96,-0.88 -0.84,-0.99 -0.72,-1.09 -0.58,-1.16 -0.44,-1.23 -0.28,-1.27 -0.13,-1.30 0.02,-1.30 0.18,-1.30 0.33,-1.26 0.48,-1.21 0.48,-1.21 L 0.48,-1.21 Z"></path></g><g transform="translate(36.63594470046067 64.20890937019976) rotate(0 6.774193548387103 0.9677419354837866)" stroke="none"><path fill="#2f8eb4" d="M 0,-1.31 Q 0,-1.31 1.11,-1.67 2.22,-2.04 4.73,-1.61 7.24,-1.18 8.71,-0.60 10.17,-0.03 11.62,0.55 13.06,1.14 13.26,1.22 13.46,1.29 13.63,1.43 13.79,1.56 13.91,1.74 14.02,1.92 14.07,2.12 14.12,2.33 14.10,2.54 14.09,2.75 14.00,2.95 13.92,3.14 13.78,3.30 13.63,3.46 13.45,3.56 13.26,3.67 13.05,3.71 12.85,3.75 12.64,3.72 12.43,3.69 12.24,3.59 12.04,3.50 11.89,3.35 11.74,3.20 11.65,3.01 11.56,2.82 11.53,2.61 11.50,2.40 11.54,2.19 11.58,1.98 11.68,1.80 11.79,1.61 11.95,1.47 12.11,1.33 12.30,1.24 12.50,1.16 12.71,1.14 12.92,1.13 13.13,1.18 13.33,1.23 13.51,1.34 13.69,1.46 13.82,1.62 13.96,1.79 14.03,1.99 14.10,2.19 14.11,2.40 14.11,2.61 14.05,2.82 13.99,3.02 13.86,3.19 13.74,3.36 13.57,3.49 13.39,3.61 13.19,3.67 12.99,3.74 12.78,3.73 12.56,3.72 12.56,3.72 12.56,3.72 10.69,3.67 8.82,3.63 7.43,3.14 6.03,2.66 4.13,2.35 2.22,2.04 1.11,1.67 0,1.31 -0.15,1.29 -0.31,1.27 -0.46,1.21 -0.61,1.16 -0.74,1.07 -0.87,0.98 -0.97,0.86 -1.08,0.74 -1.15,0.60 -1.22,0.46 -1.26,0.31 -1.30,0.15 -1.30,-0.00 -1.30,-0.15 -1.26,-0.31 -1.22,-0.46 -1.15,-0.60 -1.08,-0.74 -0.97,-0.86 -0.87,-0.98 -0.74,-1.07 -0.61,-1.16 -0.46,-1.21 -0.31,-1.27 -0.15,-1.29 0.00,-1.31 0.00,-1.31 L 0,-1.31 Z"></path></g><g transform="translate(46.31336405529939 82.91858678955464) rotate(0 2.9032258064516157 0.6451612903225623)" stroke="none"><path fill="#2f8eb4" d="M 0.28,-1.28 Q 0.28,-1.28 2.66,-0.75 5.04,-0.22 5.23,-0.14 5.43,-0.06 5.59,0.07 5.76,0.20 5.86,0.39 5.97,0.57 6.02,0.78 6.06,0.98 6.04,1.20 6.02,1.41 5.93,1.60 5.84,1.79 5.69,1.95 5.55,2.10 5.36,2.20 5.17,2.30 4.96,2.33 4.75,2.37 4.54,2.33 4.33,2.30 4.14,2.20 3.96,2.10 3.81,1.94 3.66,1.79 3.58,1.59 3.49,1.40 3.46,1.19 3.44,0.98 3.49,0.77 3.53,0.56 3.64,0.38 3.75,0.20 3.92,0.06 4.08,-0.06 4.28,-0.14 4.47,-0.22 4.69,-0.23 4.90,-0.24 5.10,-0.19 5.31,-0.13 5.48,-0.01 5.66,0.10 5.79,0.27 5.91,0.44 5.98,0.64 6.05,0.84 6.05,1.06 6.05,1.27 5.98,1.47 5.91,1.67 5.78,1.84 5.65,2.01 5.48,2.13 5.30,2.25 5.10,2.30 4.89,2.36 4.68,2.35 4.47,2.33 4.47,2.33 4.47,2.33 2.09,1.81 -0.28,1.28 -0.43,1.22 -0.58,1.17 -0.71,1.08 -0.84,1.00 -0.95,0.88 -1.06,0.77 -1.14,0.63 -1.21,0.49 -1.25,0.34 -1.29,0.18 -1.30,0.02 -1.30,-0.12 -1.27,-0.28 -1.23,-0.43 -1.16,-0.57 -1.09,-0.72 -0.99,-0.84 -0.89,-0.96 -0.76,-1.05 -0.63,-1.14 -0.49,-1.20 -0.34,-1.26 -0.18,-1.29 -0.03,-1.31 0.12,-1.29 0.28,-1.28 0.28,-1.28 L 0.28,-1.28 Z"></path></g><g transform="translate(193.1901968998742 58.47943722943728) rotate(0 2.272727272727252 0.22727272727286163)" stroke="none"><path fill="#2f8eb4" d="M -1.21,0.48 Q -1.21,0.48 -1.94,-0.02 -2.66,-0.54 -2.16,-2.39 -1.65,-4.25 -0.51,-4.96 0.62,-5.67 1.94,-5.94 3.27,-6.22 4.73,-5.79 6.19,-5.37 7.33,-3.87 8.47,-2.37 8.95,-0.93 9.43,0.50 9.33,2.05 9.24,3.60 8.33,4.78 7.42,5.95 6.41,6.39 5.40,6.83 3.88,6.77 2.36,6.72 0.84,6.01 -0.66,5.30 -1.61,4.51 -2.55,3.72 -2.19,2.31 -1.84,0.89 -1.96,0.79 -2.08,0.68 -2.17,0.56 -2.27,0.43 -2.33,0.28 -2.39,0.14 -2.41,-0.01 -2.44,-0.17 -2.42,-0.33 -2.41,-0.48 -2.35,-0.63 -2.30,-0.78 -2.22,-0.91 -2.13,-1.05 -2.01,-1.16 -1.90,-1.26 -1.76,-1.34 -1.62,-1.42 -1.47,-1.46 -1.32,-1.50 -1.16,-1.51 -1.00,-1.51 -0.85,-1.48 -0.69,-1.44 -0.55,-1.37 -0.41,-1.30 -0.44,-1.33 -0.48,-1.35 -0.32,-1.22 -0.15,-1.09 -0.03,-0.91 0.07,-0.73 0.12,-0.52 0.18,-0.32 0.16,-0.11 0.14,0.09 0.06,0.29 -0.01,0.49 -0.15,0.65 -0.29,0.80 -0.48,0.91 -0.66,1.02 -0.87,1.06 -1.08,1.10 -1.29,1.07 -1.50,1.04 -1.69,0.95 -1.88,0.86 -2.03,0.71 -2.18,0.56 -2.28,0.37 -2.38,0.18 -2.41,-0.02 -2.44,-0.23 -2.40,-0.44 -2.36,-0.65 -2.25,-0.83 -2.15,-1.02 -1.99,-1.16 -1.84,-1.31 -1.64,-1.39 -1.45,-1.48 -1.24,-1.49 -1.02,-1.51 -0.82,-1.46 -0.61,-1.41 -0.43,-1.30 -0.25,-1.19 -0.12,-1.02 0.01,-0.86 0.08,-0.66 0.16,-0.46 0.16,-0.25 0.17,-0.03 0.11,0.16 0.05,0.36 -0.06,0.54 -0.19,0.71 -0.36,0.83 -0.53,0.96 -0.73,1.02 -0.94,1.09 -1.15,1.08 -1.36,1.08 -1.60,0.98 -1.84,0.89 -1.96,0.79 -2.08,0.68 -2.17,0.56 -2.27,0.43 -2.33,0.28 -2.39,0.14 -2.41,-0.01 -2.44,-0.17 -2.42,-0.32 -2.41,-0.48 -2.35,-0.63 -2.30,-0.78 -2.22,-0.91 -2.13,-1.05 -2.01,-1.16 -1.90,-1.26 -1.76,-1.34 -1.62,-1.42 -1.47,-1.46 -1.32,-1.50 -1.16,-1.51 -1.00,-1.51 -0.85,-1.48 -0.69,-1.44 -0.55,-1.37 -0.41,-1.30 0.13,-0.61 0.68,0.08 1.60,0.69 2.52,1.30 3.65,1.01 4.78,0.72 4.25,-0.49 3.72,-1.71 2.67,-1.89 1.62,-2.07 1.42,-1.27 1.21,-0.48 1.26,-0.33 1.30,-0.18 1.30,-0.02 1.30,0.13 1.27,0.28 1.23,0.44 1.16,0.58 1.09,0.72 0.99,0.84 0.88,0.96 0.75,1.05 0.63,1.15 0.48,1.21 0.33,1.26 0.18,1.29 0.02,1.31 -0.13,1.29 -0.29,1.28 -0.44,1.22 -0.58,1.17 -0.72,1.08 -0.85,0.99 -0.96,0.88 -1.06,0.76 -1.14,0.62 -1.21,0.48 -1.21,0.48 L -1.21,0.48 Z"></path></g><g transform="translate(184.5538332635105 69.84307359307377) rotate(0 1.8181818181818414 2.954545454545382)" stroke="none"><path fill="#2f8eb4" d="M 1.26,-0.36 Q 1.26,-0.36 2.02,0.41 2.78,1.18 3.22,2.44 3.66,3.70 1.76,4.12 -0.13,4.54 0.34,3.19 0.81,1.84 1.91,2.82 3.00,3.80 2.58,4.16 2.16,4.51 1.86,4.52 1.56,4.54 1.27,4.49 0.97,4.43 0.69,4.31 0.42,4.18 0.18,4.00 -0.04,3.81 -0.23,3.57 -0.42,3.33 -0.54,3.06 -0.66,2.78 -0.71,2.48 -0.77,2.19 -0.75,1.89 -0.73,1.59 -0.64,1.30 -0.55,1.01 -0.39,0.75 -0.24,0.49 -0.02,0.28 0.18,0.07 0.44,-0.08 0.70,-0.23 0.99,-0.32 1.28,-0.41 2.18,-0.64 3.09,-0.87 3.32,-0.92 3.55,-0.97 3.78,-0.97 4.02,-0.96 4.24,-0.90 4.47,-0.84 4.68,-0.73 4.88,-0.62 5.06,-0.46 5.23,-0.30 5.36,-0.10 5.49,0.08 5.57,0.31 5.65,0.53 5.67,0.76 5.69,0.99 5.66,1.23 5.63,1.46 5.54,1.68 5.45,1.90 5.32,2.09 5.18,2.28 5.00,2.43 4.82,2.58 4.61,2.69 4.40,2.79 3.49,1.99 2.59,1.19 2.52,1.33 2.46,1.48 2.37,1.61 2.28,1.73 2.15,1.84 2.03,1.94 1.89,2.00 1.75,2.07 1.59,2.11 1.44,2.14 1.28,2.13 1.12,2.13 0.97,2.09 0.82,2.04 0.68,1.96 0.54,1.89 0.43,1.78 0.31,1.67 0.22,1.53 0.14,1.40 0.09,1.25 0.04,1.10 0.02,0.94 0.01,0.79 0.03,0.63 0.06,0.47 0.18,1.07 0.30,1.66 0.20,1.48 0.09,1.29 0.05,1.08 0.01,0.88 0.04,0.66 0.06,0.45 0.16,0.26 0.25,0.07 0.40,-0.07 0.55,-0.22 0.74,-0.32 0.93,-0.41 1.14,-0.44 1.35,-0.47 1.56,-0.43 1.77,-0.39 1.95,-0.29 2.14,-0.19 2.28,-0.03 2.42,0.12 2.51,0.31 2.59,0.51 2.61,0.72 2.63,0.93 2.58,1.14 2.53,1.34 2.42,1.52 2.31,1.70 2.14,1.84 1.98,1.97 1.78,2.04 1.58,2.12 1.37,2.13 1.15,2.13 0.95,2.07 0.75,2.01 0.57,1.89 0.40,1.77 0.27,1.59 0.15,1.42 0.09,1.22 0.02,1.02 0.03,0.80 0.03,0.59 0.10,0.39 0.17,0.19 0.31,0.03 0.44,-0.13 0.62,-0.25 0.80,-0.36 1.00,-0.41 1.21,-0.47 1.42,-0.45 1.63,-0.44 1.83,-0.35 2.02,-0.27 2.30,0.45 2.59,1.19 2.52,1.33 2.46,1.48 2.37,1.61 2.28,1.73 2.15,1.84 2.03,1.94 1.89,2.00 1.75,2.07 1.59,2.11 1.44,2.14 1.28,2.13 1.12,2.13 0.97,2.09 0.82,2.04 0.68,1.96 0.54,1.89 0.43,1.78 0.31,1.67 0.22,1.54 0.14,1.40 0.09,1.25 0.04,1.10 0.02,0.94 0.01,0.79 0.03,0.63 0.06,0.47 1.57,-0.19 3.09,-0.87 3.32,-0.92 3.55,-0.97 3.78,-0.97 4.02,-0.96 4.24,-0.90 4.47,-0.84 4.68,-0.73 4.88,-0.62 5.06,-0.46 5.23,-0.30 5.36,-0.10 5.49,0.08 5.57,0.30 5.65,0.53 5.67,0.76 5.69,0.99 5.66,1.23 5.63,1.46 5.54,1.68 5.45,1.90 5.32,2.09 5.18,2.28 5.00,2.43 4.82,2.58 4.61,2.69 4.40,2.79 4.03,2.89 3.65,2.98 2.91,3.74 2.16,4.51 1.86,4.52 1.56,4.54 1.27,4.49 0.97,4.43 0.69,4.31 0.42,4.18 0.18,4.00 -0.04,3.81 -0.23,3.57 -0.42,3.33 -0.54,3.06 -0.66,2.78 -0.71,2.49 -0.77,2.19 -0.75,1.89 -0.73,1.59 -0.64,1.30 -0.55,1.01 -0.39,0.75 -0.24,0.50 -0.02,0.28 0.18,0.07 0.44,-0.08 0.70,-0.23 0.99,-0.32 1.28,-0.41 1.60,-0.56 1.92,-0.71 3.60,-0.33 5.28,0.03 5.42,1.58 5.56,3.12 4.97,4.69 4.39,6.27 1.83,5.85 -0.72,5.44 -1.22,3.96 -1.73,2.47 -1.49,1.41 -1.26,0.36 -1.28,0.20 -1.31,0.04 -1.29,-0.10 -1.28,-0.26 -1.23,-0.41 -1.18,-0.56 -1.09,-0.70 -1.01,-0.83 -0.89,-0.94 -0.78,-1.05 -0.64,-1.13 -0.51,-1.21 -0.35,-1.25 -0.20,-1.29 -0.04,-1.30 0.11,-1.30 0.26,-1.27 0.42,-1.24 0.56,-1.17 0.70,-1.10 0.82,-1.00 0.95,-0.90 1.04,-0.77 1.13,-0.65 1.20,-0.50 1.26,-0.36 1.26,-0.36 L 1.26,-0.36 Z"></path></g><g transform="translate(185.46292417260145 77.11580086580102) rotate(0 -0.681818181818187 2.272727272727252)" stroke="none"><path fill="#2f8eb4" d="M 1.23,0.44 Q 1.23,0.44 0.48,2.49 -0.25,4.54 -0.35,4.73 -0.46,4.91 -0.62,5.05 -0.77,5.20 -0.97,5.28 -1.16,5.37 -1.38,5.38 -1.59,5.40 -1.79,5.35 -2.00,5.30 -2.18,5.19 -2.36,5.07 -2.49,4.91 -2.63,4.74 -2.70,4.54 -2.77,4.34 -2.78,4.13 -2.79,3.92 -2.72,3.72 -2.66,3.51 -2.54,3.34 -2.42,3.17 -2.24,3.04 -2.07,2.92 -1.87,2.85 -1.67,2.79 -1.45,2.80 -1.24,2.80 -1.04,2.87 -0.84,2.95 -0.68,3.08 -0.51,3.21 -0.39,3.39 -0.28,3.57 -0.23,3.78 -0.18,3.98 -0.19,4.19 -0.21,4.40 -0.29,4.60 -0.38,4.80 -0.52,4.95 -0.66,5.11 -0.84,5.22 -1.03,5.32 -1.24,5.36 -1.45,5.40 -1.66,5.38 -1.87,5.35 -2.06,5.25 -2.25,5.16 -2.40,5.01 -2.55,4.86 -2.64,4.67 -2.74,4.48 -2.77,4.27 -2.80,4.06 -2.76,3.85 -2.72,3.64 -2.72,3.64 -2.72,3.64 -1.97,1.59 -1.23,-0.44 -1.16,-0.58 -1.09,-0.73 -0.98,-0.85 -0.88,-0.97 -0.75,-1.06 -0.62,-1.15 -0.47,-1.21 -0.33,-1.27 -0.17,-1.29 -0.01,-1.31 0.13,-1.29 0.29,-1.27 0.44,-1.22 0.59,-1.17 0.72,-1.08 0.85,-0.99 0.96,-0.87 1.07,-0.76 1.14,-0.62 1.22,-0.48 1.26,-0.32 1.30,-0.17 1.30,-0.01 1.30,0.14 1.26,0.29 1.23,0.44 1.23,0.44 L 1.23,0.44 Z"></path></g><g transform="translate(188.1901968998742 77.11580086580102) rotate(0 1.818181818181813 1.363636363636374)" stroke="none"><path fill="#2f8eb4" d="M 0.92,-0.92 Q 0.92,-0.92 2.49,0.46 4.07,1.85 4.21,2.01 4.35,2.16 4.44,2.36 4.53,2.55 4.55,2.76 4.57,2.97 4.52,3.18 4.47,3.39 4.36,3.57 4.25,3.75 4.08,3.88 3.92,4.02 3.72,4.10 3.52,4.17 3.31,4.18 3.10,4.19 2.90,4.13 2.69,4.07 2.52,3.95 2.34,3.83 2.22,3.66 2.09,3.49 2.02,3.28 1.96,3.08 1.96,2.87 1.96,2.66 2.03,2.46 2.11,2.26 2.24,2.09 2.37,1.92 2.54,1.80 2.72,1.69 2.93,1.63 3.13,1.58 3.34,1.59 3.56,1.61 3.75,1.69 3.95,1.77 4.11,1.91 4.27,2.05 4.38,2.23 4.48,2.41 4.53,2.62 4.57,2.83 4.54,3.04 4.52,3.25 4.43,3.44 4.34,3.64 4.19,3.79 4.04,3.94 3.85,4.04 3.66,4.14 3.45,4.17 3.24,4.20 3.03,4.16 2.82,4.12 2.64,4.02 2.45,3.92 2.45,3.92 2.45,3.92 0.76,2.42 -0.92,0.92 -1.02,0.80 -1.12,0.67 -1.18,0.53 -1.25,0.39 -1.28,0.23 -1.31,0.07 -1.30,-0.07 -1.29,-0.23 -1.24,-0.38 -1.19,-0.53 -1.11,-0.67 -1.03,-0.80 -0.92,-0.92 -0.80,-1.03 -0.67,-1.11 -0.53,-1.19 -0.38,-1.24 -0.23,-1.29 -0.07,-1.30 0.07,-1.31 0.23,-1.28 0.39,-1.25 0.53,-1.18 0.67,-1.12 0.80,-1.02 0.92,-0.92 0.92,-0.92 L 0.92,-0.92 Z"></path></g><g transform="translate(192.28110599078326 55.75216450216453) rotate(0 -0.45454545454543904 2.954545454545496)" stroke="none"><path fill="#2f8eb4" d="M 1.21,0.48 Q 1.21,0.48 1.41,1.32 1.60,2.15 1.22,3.92 0.85,5.68 0.82,5.89 0.79,6.10 0.70,6.30 0.60,6.49 0.45,6.64 0.30,6.79 0.11,6.88 -0.07,6.98 -0.28,7.01 -0.49,7.04 -0.70,7.00 -0.91,6.96 -1.09,6.85 -1.28,6.75 -1.42,6.59 -1.56,6.43 -1.64,6.24 -1.73,6.04 -1.75,5.83 -1.76,5.62 -1.71,5.41 -1.66,5.21 -1.55,5.03 -1.43,4.85 -1.27,4.71 -1.10,4.58 -0.90,4.51 -0.71,4.43 -0.49,4.43 -0.28,4.42 -0.08,4.48 0.12,4.54 0.29,4.67 0.46,4.79 0.59,4.96 0.71,5.14 0.77,5.34 0.84,5.54 0.83,5.75 0.83,5.97 0.75,6.17 0.68,6.37 0.55,6.53 0.41,6.70 0.24,6.81 0.06,6.93 -0.14,6.98 -0.35,7.03 -0.56,7.01 -0.77,7.00 -0.96,6.91 -1.16,6.83 -1.32,6.69 -1.48,6.55 -1.58,6.36 -1.69,6.18 -1.73,5.97 -1.77,5.76 -1.77,5.76 -1.77,5.76 -2.21,3.11 -2.65,0.45 -1.93,-0.01 -1.21,-0.48 -1.14,-0.62 -1.06,-0.76 -0.96,-0.88 -0.85,-0.99 -0.72,-1.08 -0.58,-1.17 -0.44,-1.22 -0.29,-1.28 -0.13,-1.29 0.02,-1.31 0.18,-1.29 0.33,-1.26 0.48,-1.21 0.63,-1.15 0.75,-1.05 0.88,-0.96 0.99,-0.84 1.09,-0.72 1.16,-0.58 1.23,-0.44 1.27,-0.28 1.30,-0.13 1.30,0.02 1.30,0.18 1.26,0.33 1.21,0.48 1.21,0.48 L 1.21,0.48 Z"></path></g><g transform="translate(172.28110599078326 49.84307359307377) rotate(0 2.045454545454561 -1.590909090909122)" stroke="none"><path fill="#2f8eb4" d="M -0.87,-0.98 Q -0.87,-0.98 0.80,-2.47 2.47,-3.96 2.65,-4.07 2.83,-4.18 3.04,-4.23 3.25,-4.28 3.46,-4.27 3.67,-4.25 3.86,-4.16 4.06,-4.08 4.22,-3.94 4.37,-3.79 4.48,-3.61 4.58,-3.42 4.62,-3.21 4.66,-3.00 4.63,-2.79 4.60,-2.58 4.51,-2.39 4.41,-2.20 4.26,-2.05 4.11,-1.90 3.92,-1.81 3.73,-1.72 3.52,-1.69 3.31,-1.66 3.10,-1.70 2.89,-1.74 2.70,-1.85 2.52,-1.95 2.38,-2.11 2.24,-2.27 2.15,-2.47 2.07,-2.66 2.05,-2.88 2.04,-3.09 2.09,-3.29 2.14,-3.50 2.26,-3.68 2.37,-3.86 2.54,-3.99 2.71,-4.12 2.91,-4.19 3.11,-4.27 3.32,-4.27 3.53,-4.27 3.73,-4.21 3.94,-4.15 4.11,-4.02 4.28,-3.90 4.40,-3.73 4.53,-3.55 4.59,-3.35 4.65,-3.15 4.64,-2.93 4.64,-2.72 4.56,-2.52 4.49,-2.32 4.35,-2.16 4.22,-1.99 4.22,-1.99 4.22,-1.99 2.54,-0.50 0.87,0.98 0.74,1.07 0.61,1.16 0.46,1.21 0.31,1.27 0.15,1.29 0.00,1.31 -0.15,1.29 -0.31,1.27 -0.46,1.21 -0.60,1.16 -0.73,1.07 -0.86,0.98 -0.97,0.86 -1.07,0.74 -1.15,0.60 -1.22,0.46 -1.26,0.31 -1.30,0.16 -1.30,0.00 -1.30,-0.15 -1.26,-0.31 -1.22,-0.46 -1.15,-0.60 -1.08,-0.74 -0.97,-0.86 -0.87,-0.98 -0.87,-0.98 L -0.87,-0.98 Z"></path></g><g transform="translate(187.28110599078326 45.297619047619264) rotate(0 2.2727272727272805 1.8181818181817562)" stroke="none"><path fill="#2f8eb4" d="M 0.80,-1.03 Q 0.80,-1.03 2.89,0.62 4.98,2.29 5.12,2.45 5.26,2.61 5.34,2.81 5.42,3.00 5.44,3.22 5.45,3.43 5.40,3.63 5.34,3.84 5.23,4.02 5.11,4.19 4.94,4.32 4.78,4.46 4.58,4.53 4.38,4.60 4.16,4.60 3.95,4.60 3.75,4.54 3.55,4.47 3.38,4.35 3.20,4.22 3.08,4.05 2.96,3.87 2.90,3.67 2.84,3.47 2.85,3.25 2.86,3.04 2.93,2.84 3.01,2.64 3.14,2.48 3.28,2.32 3.46,2.20 3.64,2.09 3.85,2.04 4.05,1.99 4.27,2.01 4.48,2.03 4.67,2.12 4.87,2.21 5.02,2.35 5.18,2.49 5.28,2.68 5.38,2.87 5.42,3.08 5.46,3.29 5.43,3.50 5.39,3.71 5.30,3.90 5.20,4.08 5.05,4.23 4.90,4.38 4.71,4.47 4.51,4.57 4.30,4.59 4.09,4.62 3.88,4.57 3.68,4.53 3.49,4.43 3.31,4.32 3.31,4.32 3.31,4.32 1.25,2.68 -0.80,1.03 -0.91,0.92 -1.03,0.81 -1.11,0.67 -1.19,0.54 -1.24,0.39 -1.29,0.24 -1.30,0.08 -1.31,-0.07 -1.28,-0.23 -1.25,-0.38 -1.19,-0.53 -1.12,-0.67 -1.02,-0.80 -0.93,-0.92 -0.80,-1.02 -0.68,-1.12 -0.53,-1.18 -0.39,-1.25 -0.23,-1.28 -0.08,-1.31 0.07,-1.30 0.23,-1.29 0.38,-1.24 0.53,-1.19 0.67,-1.11 0.80,-1.03 0.80,-1.03 L 0.80,-1.03 Z"></path></g><g transform="translate(175.9174696271469 72.57034632034652) rotate(0 -6.5909090909090935 -0.22727272727274794)" stroke="none"><path fill="#2f8eb4" d="M -0.11,1.30 Q -0.11,1.30 -1.58,1.54 -3.06,1.77 -4.53,1.73 -6.00,1.69 -8.90,1.46 -11.80,1.24 -12.01,1.22 -12.22,1.19 -12.41,1.10 -12.61,1.01 -12.76,0.87 -12.91,0.72 -13.01,0.53 -13.11,0.34 -13.15,0.13 -13.18,-0.07 -13.14,-0.28 -13.11,-0.49 -13.01,-0.67 -12.91,-0.86 -12.75,-1.01 -12.60,-1.15 -12.41,-1.24 -12.21,-1.33 -12.00,-1.35 -11.79,-1.37 -11.58,-1.33 -11.38,-1.28 -11.19,-1.17 -11.01,-1.06 -10.88,-0.90 -10.74,-0.74 -10.66,-0.54 -10.58,-0.34 -10.57,-0.13 -10.56,0.07 -10.62,0.28 -10.68,0.48 -10.80,0.66 -10.92,0.83 -11.09,0.96 -11.25,1.09 -11.46,1.16 -11.66,1.22 -11.87,1.22 -12.08,1.22 -12.28,1.15 -12.49,1.09 -12.65,0.96 -12.82,0.83 -12.94,0.65 -13.06,0.48 -13.12,0.27 -13.17,0.07 -13.16,-0.14 -13.15,-0.35 -13.07,-0.55 -12.99,-0.74 -12.85,-0.90 -12.71,-1.07 -12.53,-1.17 -12.35,-1.28 -12.14,-1.33 -11.93,-1.37 -11.93,-1.37 -11.93,-1.37 -8.89,-1.90 -5.85,-2.43 -4.27,-2.36 -2.68,-2.29 -1.28,-1.80 0.11,-1.30 0.27,-1.27 0.42,-1.24 0.57,-1.17 0.71,-1.10 0.83,-1.00 0.95,-0.90 1.05,-0.77 1.14,-0.64 1.20,-0.49 1.26,-0.35 1.28,-0.19 1.31,-0.03 1.29,0.11 1.28,0.27 1.23,0.42 1.18,0.57 1.09,0.70 1.00,0.84 0.89,0.94 0.77,1.05 0.64,1.13 0.50,1.21 0.34,1.25 0.19,1.29 0.03,1.30 -0.11,1.30 -0.11,1.30 L -0.11,1.30 Z"></path></g><g transform="translate(175.008378718056 80.29761904761926) rotate(0 -7.045454545454561 1.5909090909090082)" stroke="none"><path fill="#2f8eb4" d="M 0.31,1.27 Q 0.31,1.27 -1.69,2.11 -3.70,2.96 -5.79,3.41 -7.87,3.86 -10.33,4.06 -12.78,4.25 -12.99,4.26 -13.21,4.27 -13.41,4.21 -13.61,4.15 -13.79,4.03 -13.96,3.90 -14.09,3.73 -14.21,3.56 -14.28,3.36 -14.34,3.16 -14.34,2.94 -14.33,2.73 -14.26,2.53 -14.19,2.33 -14.06,2.16 -13.93,2.00 -13.75,1.88 -13.57,1.76 -13.37,1.71 -13.16,1.66 -12.95,1.67 -12.74,1.69 -12.54,1.77 -12.35,1.85 -12.19,1.99 -12.03,2.13 -11.92,2.32 -11.81,2.50 -11.77,2.71 -11.73,2.92 -11.76,3.13 -11.78,3.34 -11.88,3.53 -11.97,3.72 -12.12,3.87 -12.27,4.02 -12.45,4.12 -12.64,4.22 -12.85,4.25 -13.06,4.28 -13.27,4.24 -13.48,4.20 -13.67,4.10 -13.85,4.00 -14.00,3.84 -14.14,3.68 -14.23,3.49 -14.31,3.30 -14.33,3.08 -14.35,2.87 -14.30,2.67 -14.25,2.46 -14.14,2.28 -14.03,2.10 -13.86,1.96 -13.70,1.83 -13.50,1.75 -13.30,1.68 -13.30,1.68 -13.30,1.68 -11.02,0.92 -8.74,0.15 -6.70,-0.35 -4.66,-0.87 -2.48,-1.07 -0.31,-1.27 -0.16,-1.29 -0.00,-1.31 0.15,-1.29 0.31,-1.27 0.45,-1.22 0.60,-1.16 0.73,-1.07 0.86,-0.98 0.97,-0.86 1.07,-0.74 1.15,-0.60 1.22,-0.46 1.26,-0.31 1.30,-0.16 1.30,-0.00 1.30,0.15 1.26,0.30 1.22,0.46 1.15,0.60 1.08,0.74 0.97,0.86 0.87,0.98 0.74,1.07 0.61,1.16 0.46,1.21 0.31,1.27 0.31,1.27 L 0.31,1.27 Z"></path></g><g transform="translate(177.7356514453287 86.66125541125552) rotate(0 -7.5 5.227272727272748)" stroke="none"><path fill="#2f8eb4" d="M 0.67,1.12 Q 0.67,1.12 -1.06,2.66 -2.81,4.19 -4.92,5.57 -7.02,6.95 -9.99,8.74 -12.96,10.53 -13.15,10.64 -13.34,10.74 -13.54,10.77 -13.75,10.81 -13.96,10.78 -14.17,10.75 -14.36,10.65 -14.55,10.55 -14.70,10.40 -14.85,10.24 -14.94,10.05 -15.03,9.86 -15.05,9.65 -15.08,9.44 -15.04,9.23 -14.99,9.02 -14.88,8.84 -14.78,8.66 -14.62,8.52 -14.45,8.38 -14.26,8.30 -14.06,8.22 -13.85,8.20 -13.64,8.19 -13.43,8.25 -13.23,8.30 -13.05,8.42 -12.87,8.54 -12.74,8.70 -12.61,8.87 -12.54,9.07 -12.47,9.27 -12.47,9.48 -12.47,9.70 -12.53,9.90 -12.60,10.10 -12.73,10.27 -12.85,10.44 -13.03,10.56 -13.20,10.68 -13.41,10.74 -13.61,10.80 -13.82,10.79 -14.04,10.78 -14.24,10.71 -14.43,10.63 -14.60,10.49 -14.76,10.36 -14.87,10.18 -14.98,9.99 -15.03,9.79 -15.08,9.58 -15.06,9.37 -15.04,9.16 -14.95,8.96 -14.86,8.77 -14.72,8.61 -14.57,8.46 -14.57,8.46 -14.57,8.46 -11.97,5.93 -9.37,3.41 -7.20,1.95 -5.02,0.50 -2.85,-0.31 -0.67,-1.12 -0.53,-1.19 -0.38,-1.25 -0.23,-1.28 -0.07,-1.31 0.08,-1.30 0.24,-1.29 0.39,-1.24 0.54,-1.19 0.67,-1.11 0.81,-1.03 0.92,-0.91 1.03,-0.80 1.11,-0.67 1.19,-0.53 1.24,-0.38 1.29,-0.23 1.30,-0.07 1.31,0.08 1.28,0.23 1.25,0.39 1.18,0.53 1.12,0.68 1.02,0.80 0.92,0.93 0.80,1.02 0.67,1.12 0.67,1.12 L 0.67,1.12 Z"></path></g><g transform="translate(198.64474235441963 71.20670995671003) rotate(0 4.0909090909090935 -2.045454545454504)" stroke="none"><path fill="#2f8eb4" d="M -0.65,-1.14 Q -0.65,-1.14 1.03,-2.43 2.72,-3.73 4.98,-4.34 7.24,-4.94 7.45,-4.99 7.66,-5.04 7.87,-5.01 8.08,-4.99 8.27,-4.90 8.47,-4.81 8.62,-4.67 8.78,-4.52 8.88,-4.34 8.98,-4.15 9.01,-3.94 9.05,-3.73 9.01,-3.52 8.98,-3.31 8.88,-3.12 8.78,-2.93 8.63,-2.79 8.47,-2.64 8.28,-2.55 8.09,-2.46 7.88,-2.44 7.66,-2.41 7.46,-2.46 7.25,-2.50 7.07,-2.61 6.88,-2.72 6.75,-2.88 6.61,-3.04 6.53,-3.24 6.45,-3.44 6.44,-3.65 6.43,-3.86 6.48,-4.07 6.54,-4.27 6.66,-4.45 6.78,-4.63 6.95,-4.75 7.11,-4.88 7.32,-4.95 7.52,-5.02 7.73,-5.02 7.94,-5.02 8.14,-4.95 8.34,-4.89 8.51,-4.76 8.68,-4.63 8.80,-4.45 8.92,-4.28 8.98,-4.07 9.04,-3.87 9.03,-3.66 9.02,-3.45 8.94,-3.25 8.86,-3.05 8.72,-2.89 8.59,-2.73 8.40,-2.62 8.22,-2.51 8.22,-2.51 8.22,-2.51 6.41,-1.47 4.59,-0.44 2.62,0.34 0.65,1.14 0.50,1.20 0.35,1.26 0.20,1.28 0.04,1.31 -0.11,1.29 -0.26,1.28 -0.41,1.23 -0.56,1.18 -0.70,1.09 -0.83,1.01 -0.94,0.89 -1.05,0.78 -1.13,0.64 -1.21,0.50 -1.25,0.35 -1.29,0.20 -1.30,0.04 -1.30,-0.11 -1.27,-0.26 -1.24,-0.42 -1.17,-0.56 -1.10,-0.70 -1.00,-0.82 -0.90,-0.95 -0.77,-1.04 -0.65,-1.14 -0.65,-1.14 L -0.65,-1.14 Z"></path></g><g transform="translate(197.7356514453287 78.93398268398278) rotate(0 6.363636363636374 -1.8181818181817562)" stroke="none"><path fill="#2f8eb4" d="M -0.41,-1.24 Q -0.41,-1.24 0.67,-1.90 1.75,-2.57 3.72,-3.16 5.69,-3.76 7.05,-4.12 8.41,-4.47 10.06,-4.60 11.70,-4.72 11.91,-4.74 12.12,-4.76 12.33,-4.71 12.54,-4.66 12.72,-4.55 12.90,-4.44 13.03,-4.28 13.17,-4.11 13.25,-3.91 13.32,-3.71 13.33,-3.50 13.34,-3.29 13.28,-3.09 13.22,-2.88 13.10,-2.71 12.97,-2.53 12.80,-2.41 12.63,-2.28 12.43,-2.22 12.23,-2.15 12.02,-2.16 11.80,-2.16 11.60,-2.23 11.40,-2.30 11.24,-2.43 11.07,-2.56 10.95,-2.74 10.83,-2.92 10.78,-3.12 10.73,-3.33 10.74,-3.54 10.76,-3.75 10.84,-3.95 10.92,-4.14 11.06,-4.30 11.20,-4.46 11.38,-4.57 11.57,-4.68 11.77,-4.72 11.98,-4.76 12.19,-4.74 12.40,-4.71 12.60,-4.62 12.79,-4.53 12.94,-4.38 13.09,-4.23 13.19,-4.04 13.28,-3.85 13.32,-3.64 13.35,-3.43 13.31,-3.22 13.27,-3.01 13.17,-2.83 13.07,-2.64 12.91,-2.50 12.76,-2.35 12.56,-2.27 12.37,-2.18 12.37,-2.18 12.37,-2.18 10.89,-1.49 9.42,-0.79 8.09,-0.41 6.76,-0.03 4.85,0.48 2.94,1.00 1.68,1.12 0.41,1.24 0.26,1.27 0.10,1.30 -0.05,1.30 -0.21,1.29 -0.36,1.25 -0.51,1.20 -0.65,1.12 -0.78,1.04 -0.90,0.93 -1.01,0.83 -1.10,0.69 -1.18,0.56 -1.23,0.41 -1.28,0.26 -1.29,0.10 -1.31,-0.05 -1.28,-0.20 -1.26,-0.36 -1.19,-0.51 -1.13,-0.65 -1.04,-0.78 -0.94,-0.91 -0.82,-1.01 -0.70,-1.11 -0.55,-1.17 -0.41,-1.24 -0.41,-1.24 L -0.41,-1.24 Z"></path></g><g transform="translate(200.9174696271469 85.29761904761926) rotate(0 7.045454545454561 2.7272727272726343)" stroke="none"><path fill="#2f8eb4" d="M 0.54,-1.19 Q 0.54,-1.19 2.18,-1.00 3.83,-0.80 5.54,-0.14 7.24,0.51 10.20,2.11 13.16,3.71 13.34,3.81 13.53,3.92 13.67,4.08 13.81,4.24 13.90,4.43 13.98,4.63 14.00,4.84 14.01,5.05 13.96,5.26 13.91,5.46 13.80,5.64 13.68,5.82 13.52,5.95 13.35,6.09 13.15,6.16 12.95,6.23 12.74,6.24 12.53,6.24 12.32,6.18 12.12,6.12 11.95,5.99 11.78,5.87 11.65,5.70 11.53,5.53 11.47,5.32 11.40,5.12 11.41,4.91 11.42,4.69 11.49,4.50 11.56,4.30 11.70,4.13 11.83,3.96 12.01,3.85 12.19,3.74 12.39,3.68 12.60,3.63 12.81,3.65 13.02,3.67 13.22,3.75 13.41,3.84 13.57,3.98 13.73,4.12 13.83,4.30 13.94,4.49 13.98,4.70 14.02,4.91 13.99,5.12 13.96,5.33 13.87,5.52 13.77,5.71 13.62,5.86 13.47,6.01 13.28,6.10 13.09,6.20 12.88,6.23 12.67,6.26 12.46,6.22 12.25,6.17 12.25,6.17 12.25,6.18 8.95,5.47 5.65,4.77 3.78,4.09 1.91,3.42 0.68,2.30 -0.54,1.19 -0.67,1.11 -0.81,1.03 -0.92,0.91 -1.03,0.80 -1.11,0.67 -1.19,0.53 -1.24,0.38 -1.29,0.23 -1.30,0.07 -1.31,-0.08 -1.28,-0.23 -1.25,-0.39 -1.18,-0.53 -1.12,-0.68 -1.02,-0.80 -0.92,-0.93 -0.80,-1.02 -0.67,-1.12 -0.53,-1.19 -0.38,-1.25 -0.23,-1.28 -0.07,-1.31 0.08,-1.30 0.24,-1.29 0.39,-1.24 0.54,-1.19 0.54,-1.19 L 0.54,-1.19 Z"></path></g><g transform="translate(171.37201508169238 57.570346320346516) rotate(0 3.1818181818181586 2.954545454545382)" stroke="none"><path fill="#2f8eb4" d="M -1.05,-0.78 Q -1.05,-0.78 -0.94,-1.53 -0.83,-2.29 0.25,-3.01 1.34,-3.73 2.92,-3.59 4.49,-3.45 5.69,-2.71 6.88,-1.98 7.58,-1.17 8.29,-0.37 8.80,0.80 9.31,1.98 9.66,3.40 10.01,4.82 9.50,6.40 8.99,7.98 8.15,8.85 7.32,9.71 6.22,10.08 5.13,10.45 3.92,10.52 2.71,10.59 0.95,10.15 -0.80,9.70 -1.62,8.81 -2.43,7.92 -2.87,6.43 -3.30,4.93 -3.28,3.04 -3.25,1.15 -1.77,-0.01 -0.29,-1.18 -0.17,-1.28 -0.04,-1.38 0.09,-1.44 0.24,-1.50 0.39,-1.53 0.55,-1.56 0.71,-1.55 0.86,-1.54 1.01,-1.49 1.17,-1.44 1.30,-1.36 1.44,-1.28 1.55,-1.16 1.66,-1.05 1.74,-0.92 1.82,-0.78 1.87,-0.63 1.91,-0.48 1.92,-0.32 1.93,-0.16 1.90,-0.01 1.87,0.14 1.81,0.28 1.74,0.43 1.64,0.55 1.54,0.68 1.12,0.86 0.70,1.05 0.49,1.03 0.28,1.01 0.08,0.92 -0.10,0.83 -0.26,0.69 -0.41,0.54 -0.51,0.36 -0.61,0.17 -0.65,-0.03 -0.68,-0.24 -0.65,-0.45 -0.62,-0.66 -0.52,-0.85 -0.42,-1.04 -0.27,-1.18 -0.11,-1.33 0.07,-1.42 0.26,-1.51 0.47,-1.54 0.68,-1.56 0.89,-1.52 1.10,-1.47 1.28,-1.36 1.46,-1.25 1.60,-1.09 1.74,-0.93 1.82,-0.73 1.90,-0.54 1.91,-0.33 1.93,-0.11 1.87,0.08 1.81,0.29 1.70,0.46 1.58,0.64 1.41,0.77 1.24,0.90 1.04,0.97 0.84,1.04 0.63,1.04 0.41,1.04 0.21,0.97 0.01,0.91 -0.15,0.78 -0.32,0.65 -0.44,0.48 -0.56,0.30 -0.62,0.10 -0.68,-0.10 -0.66,-0.31 -0.65,-0.52 -0.58,-0.72 -0.50,-0.92 -0.36,-1.08 -0.23,-1.24 -0.04,-1.35 0.13,-1.47 -0.08,-1.32 -0.29,-1.18 -0.17,-1.28 -0.04,-1.38 0.09,-1.44 0.24,-1.50 0.39,-1.53 0.55,-1.56 0.71,-1.55 0.86,-1.54 1.01,-1.49 1.17,-1.44 1.30,-1.36 1.44,-1.28 1.55,-1.16 1.66,-1.05 1.74,-0.92 1.82,-0.78 1.87,-0.63 1.91,-0.48 1.92,-0.32 1.93,-0.16 1.90,-0.01 1.87,0.14 1.81,0.28 1.74,0.43 1.64,0.55 1.54,0.68 1.24,0.90 0.95,1.13 1.21,2.20 1.48,3.28 1.39,4.42 1.31,5.56 2.48,5.64 3.64,5.72 4.53,4.92 5.42,4.12 4.96,2.89 4.50,1.66 3.45,0.93 2.40,0.19 1.72,0.49 1.05,0.78 0.94,0.90 0.83,1.01 0.69,1.10 0.56,1.18 0.41,1.23 0.26,1.28 0.10,1.29 -0.05,1.31 -0.20,1.28 -0.36,1.26 -0.50,1.19 -0.65,1.13 -0.78,1.04 -0.90,0.94 -1.00,0.82 -1.10,0.70 -1.17,0.55 -1.24,0.41 -1.27,0.26 -1.30,0.10 -1.30,-0.05 -1.29,-0.20 -1.25,-0.36 -1.20,-0.51 -1.12,-0.65 -1.05,-0.78 -1.05,-0.78 L -1.05,-0.78 Z"></path></g><g transform="translate(134.09928780896507 122.11580086580102) rotate(0 1.363636363636374 2.272727272727252)" stroke="none"><path fill="#2f8eb4" d="M 0.67,-1.12 Q 0.67,-1.12 1.69,-1.20 2.71,-1.28 3.51,-0.21 4.31,0.86 4.34,2.83 4.37,4.80 4.39,5.02 4.40,5.23 4.35,5.43 4.29,5.64 4.18,5.82 4.06,5.99 3.89,6.12 3.73,6.25 3.53,6.33 3.33,6.40 3.11,6.40 2.90,6.40 2.70,6.34 2.50,6.27 2.32,6.14 2.15,6.02 2.03,5.84 1.91,5.67 1.85,5.47 1.79,5.26 1.80,5.05 1.81,4.84 1.89,4.64 1.96,4.44 2.10,4.28 2.23,4.11 2.41,4.00 2.59,3.89 2.80,3.84 3.01,3.79 3.22,3.81 3.43,3.83 3.62,3.92 3.82,4.01 3.97,4.15 4.13,4.29 4.23,4.48 4.33,4.67 4.37,4.88 4.41,5.09 4.38,5.30 4.35,5.51 4.25,5.69 4.15,5.88 4.00,6.03 3.85,6.18 3.66,6.27 3.46,6.36 3.25,6.39 3.04,6.41 2.83,6.37 2.63,6.33 2.44,6.22 2.26,6.11 2.12,5.95 1.98,5.79 1.90,5.60 1.82,5.40 1.82,5.40 1.82,5.40 0.85,4.13 -0.10,2.85 -0.39,1.99 -0.67,1.12 -0.80,1.02 -0.92,0.93 -1.02,0.80 -1.12,0.68 -1.18,0.53 -1.25,0.39 -1.28,0.23 -1.31,0.08 -1.30,-0.07 -1.29,-0.23 -1.24,-0.38 -1.19,-0.53 -1.11,-0.67 -1.03,-0.80 -0.92,-0.91 -0.81,-1.03 -0.67,-1.11 -0.54,-1.19 -0.39,-1.24 -0.24,-1.29 -0.08,-1.30 0.07,-1.31 0.23,-1.28 0.38,-1.25 0.53,-1.19 0.67,-1.12 0.67,-1.12 L 0.67,-1.12 Z"></path></g><g transform="translate(142.28110599078326 122.11580086580102) rotate(0 1.363636363636374 2.727272727272748)" stroke="none"><path fill="#2f8eb4" d="M 1.20,-0.53 Q 1.20,-0.53 2.24,0.40 3.29,1.35 3.48,2.91 3.66,4.47 3.74,4.67 3.83,4.87 3.84,5.08 3.85,5.29 3.80,5.50 3.74,5.70 3.63,5.88 3.51,6.06 3.34,6.19 3.17,6.32 2.97,6.39 2.77,6.46 2.56,6.46 2.35,6.46 2.15,6.40 1.94,6.33 1.77,6.21 1.60,6.08 1.48,5.90 1.36,5.73 1.30,5.53 1.24,5.32 1.25,5.11 1.26,4.90 1.34,4.70 1.41,4.50 1.55,4.34 1.68,4.17 1.86,4.06 2.05,3.95 2.25,3.90 2.46,3.85 2.67,3.87 2.88,3.89 3.08,3.98 3.27,4.07 3.43,4.21 3.58,4.36 3.68,4.54 3.79,4.73 3.82,4.94 3.86,5.15 3.83,5.36 3.80,5.57 3.70,5.76 3.60,5.95 3.45,6.09 3.30,6.24 3.10,6.33 2.91,6.43 2.70,6.45 2.49,6.48 2.28,6.43 2.07,6.39 1.89,6.28 1.71,6.17 1.57,6.01 1.43,5.85 1.43,5.85 1.43,5.85 0.11,4.60 -1.20,3.35 -1.20,1.94 -1.20,0.53 -1.24,0.38 -1.29,0.23 -1.30,0.07 -1.31,-0.08 -1.28,-0.24 -1.25,-0.39 -1.18,-0.54 -1.12,-0.68 -1.02,-0.80 -0.92,-0.93 -0.79,-1.03 -0.67,-1.12 -0.52,-1.19 -0.38,-1.25 -0.22,-1.28 -0.07,-1.31 0.08,-1.30 0.24,-1.29 0.39,-1.24 0.54,-1.19 0.67,-1.11 0.81,-1.02 0.92,-0.91 1.03,-0.80 1.11,-0.66 1.20,-0.53 1.20,-0.53 L 1.20,-0.53 Z"></path></g><g transform="translate(149.5538332635105 121.66125541125552) rotate(0 1.8181818181818414 2.727272727272748)" stroke="none"><path fill="#2f8eb4" d="M 1.05,-0.78 Q 1.05,-0.78 2.34,-0.12 3.63,0.54 4.07,2.47 4.51,4.41 4.60,4.60 4.69,4.80 4.71,5.01 4.74,5.22 4.69,5.43 4.64,5.63 4.53,5.82 4.42,6.00 4.26,6.13 4.10,6.27 3.90,6.35 3.70,6.43 3.49,6.44 3.28,6.45 3.08,6.39 2.87,6.33 2.70,6.21 2.52,6.10 2.39,5.93 2.26,5.76 2.20,5.55 2.13,5.35 2.13,5.14 2.13,4.93 2.20,4.73 2.27,4.53 2.40,4.36 2.52,4.19 2.70,4.07 2.88,3.95 3.08,3.89 3.29,3.84 3.50,3.85 3.71,3.86 3.91,3.94 4.11,4.02 4.27,4.16 4.43,4.30 4.54,4.48 4.65,4.66 4.69,4.87 4.74,5.08 4.71,5.29 4.69,5.50 4.60,5.69 4.51,5.88 4.36,6.04 4.22,6.19 4.03,6.29 3.84,6.39 3.63,6.42 3.42,6.46 3.21,6.42 3.00,6.39 2.82,6.29 2.63,6.19 2.48,6.03 2.34,5.88 2.34,5.88 2.34,5.88 0.91,4.76 -0.50,3.63 -0.77,2.21 -1.05,0.78 -1.12,0.65 -1.20,0.51 -1.25,0.36 -1.29,0.20 -1.30,0.05 -1.30,-0.10 -1.27,-0.26 -1.24,-0.41 -1.17,-0.56 -1.10,-0.70 -1.00,-0.82 -0.90,-0.94 -0.78,-1.04 -0.65,-1.13 -0.50,-1.19 -0.36,-1.26 -0.20,-1.28 -0.05,-1.31 0.10,-1.29 0.26,-1.28 0.41,-1.23 0.56,-1.18 0.69,-1.10 0.83,-1.01 0.94,-0.90 1.05,-0.78 1.05,-0.78 L 1.05,-0.78 Z"></path></g><g transform="translate(155.46292417260145 118.93398268398278) rotate(0 2.0454545454545325 2.727272727272748)" stroke="none"><path fill="#2f8eb4" d="M 1.00,-0.84 Q 1.00,-0.84 2.18,-0.49 3.36,-0.14 4.23,2.21 5.10,4.57 5.17,4.77 5.25,4.97 5.25,5.19 5.26,5.40 5.19,5.60 5.13,5.80 5.00,5.98 4.88,6.15 4.71,6.27 4.53,6.39 4.33,6.46 4.13,6.52 3.91,6.51 3.70,6.50 3.50,6.43 3.30,6.36 3.14,6.22 2.97,6.09 2.86,5.91 2.75,5.73 2.70,5.52 2.65,5.32 2.66,5.10 2.68,4.89 2.77,4.70 2.85,4.50 2.99,4.35 3.14,4.19 3.32,4.08 3.51,3.98 3.72,3.94 3.93,3.90 4.14,3.93 4.35,3.96 4.54,4.06 4.73,4.15 4.88,4.30 5.03,4.45 5.12,4.65 5.21,4.84 5.24,5.05 5.27,5.26 5.23,5.47 5.19,5.67 5.08,5.86 4.97,6.04 4.82,6.18 4.66,6.33 4.46,6.41 4.27,6.49 4.05,6.51 3.84,6.52 3.64,6.47 3.43,6.42 3.25,6.30 3.07,6.19 2.94,6.02 2.81,5.86 2.81,5.86 2.81,5.86 1.03,4.57 -0.74,3.28 -0.87,2.06 -1.00,0.84 -1.09,0.70 -1.18,0.57 -1.23,0.42 -1.28,0.27 -1.29,0.11 -1.31,-0.03 -1.28,-0.19 -1.26,-0.35 -1.20,-0.49 -1.14,-0.64 -1.05,-0.77 -0.95,-0.90 -0.83,-1.00 -0.71,-1.10 -0.57,-1.17 -0.42,-1.24 -0.27,-1.27 -0.11,-1.30 0.03,-1.30 0.19,-1.29 0.35,-1.25 0.50,-1.21 0.64,-1.13 0.77,-1.05 0.89,-0.94 1.00,-0.84 1.00,-0.84 L 1.00,-0.84 Z"></path></g><g transform="translate(160.008378718056 114.38852813852827) rotate(0 1.5909090909090935 1.590909090909122)" stroke="none"><path fill="#2f8eb4" d="M 0.98,-0.86 Q 0.98,-0.86 2.29,0.62 3.59,2.11 3.70,2.29 3.81,2.47 3.86,2.68 3.91,2.88 3.89,3.10 3.87,3.31 3.79,3.50 3.70,3.70 3.56,3.85 3.41,4.01 3.23,4.11 3.04,4.21 2.83,4.25 2.62,4.29 2.41,4.26 2.20,4.23 2.01,4.13 1.82,4.03 1.67,3.88 1.53,3.73 1.43,3.54 1.34,3.34 1.32,3.13 1.29,2.92 1.33,2.71 1.38,2.51 1.48,2.32 1.59,2.14 1.75,2.00 1.91,1.86 2.10,1.78 2.30,1.70 2.51,1.68 2.73,1.67 2.93,1.72 3.14,1.77 3.31,1.89 3.49,2.01 3.62,2.18 3.75,2.34 3.82,2.54 3.89,2.74 3.90,2.96 3.90,3.17 3.84,3.37 3.77,3.57 3.65,3.74 3.52,3.91 3.34,4.04 3.17,4.16 2.97,4.22 2.76,4.28 2.55,4.27 2.34,4.26 2.14,4.19 1.94,4.11 1.78,3.97 1.61,3.84 1.61,3.84 1.61,3.84 0.31,2.35 -0.98,0.86 -1.07,0.73 -1.16,0.60 -1.22,0.45 -1.27,0.30 -1.29,0.14 -1.31,-0.00 -1.29,-0.16 -1.27,-0.32 -1.21,-0.46 -1.15,-0.61 -1.06,-0.74 -0.97,-0.87 -0.85,-0.98 -0.73,-1.08 -0.59,-1.15 -0.45,-1.23 -0.30,-1.26 -0.15,-1.30 0.00,-1.30 0.16,-1.30 0.31,-1.26 0.47,-1.22 0.61,-1.15 0.75,-1.07 0.87,-0.97 0.98,-0.86 0.98,-0.86 L 0.98,-0.86 Z"></path></g><g transform="translate(219.5538332635105 105.29761904761926) rotate(0 4.0909090909090935 2.5)" stroke="none"><path fill="#2f8eb4" d="M 0.58,-1.17 Q 0.58,-1.17 1.62,-1.27 2.65,-1.38 3.87,-0.70 5.09,-0.01 6.92,1.88 8.76,3.79 8.90,3.94 9.05,4.09 9.14,4.29 9.23,4.48 9.25,4.69 9.28,4.90 9.23,5.11 9.19,5.32 9.08,5.50 8.97,5.68 8.81,5.82 8.64,5.96 8.45,6.04 8.25,6.12 8.04,6.13 7.82,6.14 7.62,6.08 7.42,6.03 7.24,5.91 7.06,5.79 6.93,5.62 6.81,5.45 6.74,5.25 6.67,5.05 6.67,4.84 6.67,4.62 6.74,4.42 6.80,4.22 6.93,4.05 7.06,3.88 7.24,3.76 7.41,3.64 7.62,3.59 7.82,3.53 8.03,3.54 8.24,3.55 8.44,3.63 8.64,3.71 8.80,3.84 8.96,3.98 9.07,4.16 9.18,4.35 9.23,4.55 9.28,4.76 9.25,4.97 9.23,5.18 9.14,5.38 9.05,5.57 8.91,5.72 8.76,5.88 8.57,5.98 8.39,6.08 8.18,6.11 7.97,6.15 7.76,6.11 7.55,6.08 7.36,5.98 7.17,5.88 7.17,5.88 7.17,5.88 4.71,5.10 2.25,4.32 1.36,3.63 0.48,2.95 -0.05,2.06 -0.58,1.17 -0.71,1.08 -0.85,0.99 -0.95,0.88 -1.06,0.76 -1.14,0.62 -1.21,0.48 -1.25,0.33 -1.30,0.18 -1.30,0.02 -1.30,-0.13 -1.27,-0.28 -1.23,-0.44 -1.16,-0.58 -1.09,-0.72 -0.99,-0.84 -0.89,-0.96 -0.76,-1.05 -0.63,-1.15 -0.48,-1.20 -0.33,-1.26 -0.18,-1.29 -0.02,-1.31 0.13,-1.29 0.28,-1.28 0.43,-1.22 0.58,-1.17 0.58,-1.17 L 0.58,-1.17 Z"></path></g><g transform="translate(225.9174696271469 104.38852813852827) rotate(0 3.4090909090909065 0.22727272727274794)" stroke="none"><path fill="#2f8eb4" d="M 0.13,-1.30 Q 0.13,-1.30 1.50,-1.85 2.88,-2.41 4.75,-1.44 6.62,-0.47 6.82,-0.39 7.01,-0.32 7.18,-0.18 7.34,-0.04 7.45,0.13 7.56,0.31 7.61,0.51 7.66,0.72 7.64,0.93 7.62,1.14 7.53,1.34 7.44,1.53 7.30,1.69 7.15,1.84 6.97,1.95 6.78,2.05 6.57,2.08 6.36,2.12 6.15,2.09 5.94,2.06 5.75,1.96 5.57,1.86 5.42,1.71 5.27,1.56 5.18,1.36 5.09,1.17 5.06,0.96 5.04,0.75 5.08,0.54 5.12,0.33 5.23,0.15 5.34,-0.02 5.50,-0.16 5.66,-0.30 5.86,-0.38 6.05,-0.46 6.26,-0.48 6.48,-0.49 6.68,-0.44 6.89,-0.38 7.06,-0.26 7.24,-0.15 7.37,0.01 7.50,0.18 7.57,0.38 7.64,0.58 7.64,0.79 7.65,1.01 7.58,1.21 7.52,1.41 7.39,1.58 7.26,1.75 7.09,1.87 6.91,1.99 6.71,2.05 6.50,2.11 6.29,2.10 6.08,2.09 6.08,2.09 6.08,2.09 4.21,2.51 2.34,2.93 1.10,2.12 -0.13,1.30 -0.28,1.27 -0.43,1.23 -0.58,1.16 -0.72,1.09 -0.84,0.99 -0.96,0.89 -1.05,0.76 -1.14,0.63 -1.20,0.48 -1.26,0.34 -1.29,0.18 -1.31,0.02 -1.29,-0.12 -1.28,-0.28 -1.22,-0.43 -1.17,-0.58 -1.08,-0.71 -1.00,-0.84 -0.88,-0.95 -0.76,-1.06 -0.63,-1.14 -0.49,-1.21 -0.33,-1.25 -0.18,-1.30 -0.02,-1.30 0.13,-1.30 0.13,-1.30 L 0.13,-1.30 Z"></path></g><g transform="translate(229.5538332635105 98.93398268398278) rotate(0 3.181818181818187 1.136363636363626)" stroke="none"><path fill="#2f8eb4" d="M 0.53,-1.20 Q 0.53,-1.20 1.94,-1.21 3.35,-1.22 4.69,-0.21 6.02,0.79 6.21,0.88 6.40,0.98 6.55,1.13 6.70,1.28 6.79,1.47 6.89,1.66 6.92,1.87 6.95,2.08 6.91,2.29 6.87,2.50 6.76,2.68 6.66,2.87 6.50,3.01 6.34,3.15 6.15,3.24 5.95,3.32 5.74,3.34 5.53,3.36 5.32,3.30 5.12,3.25 4.94,3.14 4.76,3.02 4.62,2.86 4.49,2.69 4.42,2.49 4.34,2.29 4.34,2.08 4.33,1.87 4.39,1.67 4.46,1.46 4.58,1.29 4.70,1.12 4.88,0.99 5.05,0.87 5.25,0.81 5.46,0.74 5.67,0.75 5.88,0.76 6.08,0.83 6.28,0.90 6.45,1.04 6.61,1.17 6.73,1.35 6.84,1.53 6.89,1.73 6.94,1.94 6.93,2.15 6.91,2.36 6.83,2.56 6.74,2.75 6.60,2.91 6.46,3.07 6.27,3.17 6.09,3.28 5.88,3.32 5.67,3.36 5.46,3.33 5.25,3.30 5.25,3.30 5.25,3.30 3.30,3.31 1.34,3.31 0.40,2.25 -0.53,1.20 -0.66,1.11 -0.80,1.03 -0.91,0.92 -1.03,0.81 -1.11,0.67 -1.19,0.54 -1.24,0.39 -1.29,0.24 -1.30,0.08 -1.31,-0.07 -1.28,-0.22 -1.25,-0.38 -1.19,-0.52 -1.12,-0.67 -1.02,-0.79 -0.93,-0.92 -0.80,-1.02 -0.68,-1.12 -0.54,-1.18 -0.39,-1.25 -0.24,-1.28 -0.08,-1.31 0.07,-1.30 0.23,-1.29 0.38,-1.24 0.53,-1.20 0.53,-1.20 L 0.53,-1.20 Z"></path></g><g transform="translate(226.37201508169233 96.20670995671003) rotate(0 2.727272727272748 -0.4545454545453822)" stroke="none"><path fill="#2f8eb4" d="M -0.18,-1.30 Q -0.18,-1.30 0.64,-2.07 1.48,-2.85 3.38,-2.08 5.27,-1.32 5.48,-1.27 5.69,-1.23 5.87,-1.12 6.06,-1.02 6.20,-0.86 6.34,-0.70 6.42,-0.50 6.50,-0.31 6.52,-0.09 6.53,0.11 6.48,0.31 6.42,0.52 6.31,0.70 6.19,0.87 6.02,1.01 5.86,1.14 5.66,1.21 5.46,1.28 5.25,1.28 5.03,1.29 4.83,1.22 4.63,1.16 4.46,1.03 4.29,0.91 4.16,0.73 4.04,0.56 3.98,0.35 3.92,0.15 3.93,-0.05 3.94,-0.26 4.01,-0.46 4.09,-0.66 4.22,-0.83 4.36,-0.99 4.54,-1.10 4.72,-1.22 4.92,-1.26 5.13,-1.31 5.34,-1.29 5.55,-1.27 5.75,-1.19 5.94,-1.10 6.10,-0.96 6.26,-0.82 6.36,-0.63 6.46,-0.44 6.50,-0.23 6.54,-0.02 6.51,0.18 6.48,0.39 6.38,0.57 6.28,0.76 6.13,0.91 5.98,1.06 5.79,1.15 5.60,1.25 5.38,1.27 5.17,1.30 5.17,1.30 5.17,1.30 3.67,1.81 2.17,2.32 1.18,1.81 0.18,1.30 0.02,1.30 -0.13,1.30 -0.28,1.27 -0.43,1.23 -0.58,1.16 -0.72,1.09 -0.84,0.99 -0.96,0.89 -1.05,0.76 -1.14,0.63 -1.20,0.48 -1.26,0.34 -1.29,0.18 -1.31,0.02 -1.29,-0.12 -1.28,-0.28 -1.22,-0.43 -1.17,-0.58 -1.08,-0.71 -1.00,-0.85 -0.88,-0.95 -0.76,-1.06 -0.62,-1.14 -0.49,-1.21 -0.33,-1.25 -0.18,-1.30 -0.18,-1.30 L -0.18,-1.30 Z"></path></g><g transform="translate(223.1901968998742 91.66125541125552) rotate(0 2.7272727272727195 0.22727272727274794)" stroke="none"><path fill="#2f8eb4" d="M 0.13,-1.30 Q 0.13,-1.30 2.58,-1.09 5.03,-0.89 5.23,-0.84 5.44,-0.79 5.62,-0.68 5.80,-0.56 5.94,-0.40 6.07,-0.24 6.15,-0.04 6.22,0.15 6.23,0.36 6.24,0.57 6.18,0.78 6.12,0.98 6.00,1.16 5.88,1.33 5.71,1.46 5.54,1.58 5.33,1.65 5.13,1.71 4.92,1.71 4.71,1.71 4.51,1.64 4.31,1.57 4.14,1.44 3.97,1.30 3.85,1.13 3.74,0.95 3.68,0.74 3.63,0.54 3.64,0.33 3.66,0.11 3.74,-0.07 3.82,-0.27 3.96,-0.43 4.10,-0.59 4.28,-0.70 4.47,-0.80 4.68,-0.84 4.88,-0.89 5.09,-0.86 5.31,-0.84 5.50,-0.74 5.69,-0.65 5.84,-0.50 5.99,-0.36 6.09,-0.17 6.19,0.01 6.22,0.22 6.25,0.43 6.21,0.64 6.17,0.85 6.07,1.04 5.97,1.22 5.81,1.37 5.66,1.51 5.46,1.60 5.27,1.68 5.06,1.70 4.85,1.72 4.85,1.72 4.85,1.72 2.36,1.51 -0.13,1.30 -0.28,1.27 -0.43,1.23 -0.58,1.16 -0.72,1.09 -0.84,0.99 -0.96,0.89 -1.05,0.76 -1.14,0.63 -1.20,0.48 -1.26,0.34 -1.29,0.18 -1.31,0.02 -1.29,-0.12 -1.28,-0.28 -1.22,-0.43 -1.17,-0.58 -1.08,-0.71 -1.00,-0.84 -0.88,-0.95 -0.76,-1.06 -0.63,-1.14 -0.49,-1.21 -0.33,-1.25 -0.18,-1.30 -0.02,-1.30 0.13,-1.30 0.13,-1.30 L 0.13,-1.30 Z"></path></g></svg>
